<svg width="253" height="86" viewBox="0 0 253 86" fill="none" xmlns="http://www.w3.org/2000/svg">
<path d="M208.581 63.4204C204.557 67.4928 199.848 69.8451 194.21 70.5142C185.159 71.5884 177.753 62.7891 180.824 54.5237C183.967 46.0647 194.582 40.1784 203.183 42.1529C207.251 43.0867 210.222 45.4652 212.199 49.0005C213.938 52.1096 213.659 55.2885 212.027 58.3197C211.086 60.0686 209.815 61.6492 208.581 63.4204ZM186.307 53.153C186.128 54.1559 185.817 55.1561 185.796 56.1621C185.73 59.3348 187.208 60.5473 190.449 60.1082C193.651 59.6743 197.177 56.0297 197.443 52.8788C197.667 50.2272 195.768 48.3723 192.993 48.6176C190.056 48.8773 188.065 50.5903 186.307 53.153Z" fill="#E5EAD2"/>
<path d="M63.0976 84.5397C53.7622 86.461 44.7833 85.7395 35.7858 83.377C28.3956 81.4365 21.8515 78.043 16.1356 73.2632C8.82594 67.1507 4.72554 59.0229 2.35269 50.077C-0.134184 40.7011 -0.301821 31.3296 2.66931 21.9372C7.02407 8.17075 19.8639 -0.227174 34.8245 1.00381C40.483 1.46939 45.8831 2.69814 50.9115 5.25956C59.909 9.84272 64.7118 17.2341 66.3242 26.9067C67.391 33.306 66.1856 39.3721 63.3438 44.947C60.0165 51.4742 54.4967 55.7831 46.7417 56.492C45.0093 56.6504 43.1879 55.8837 41.4075 55.5429C41.4181 55.272 41.4287 55.0011 41.4394 54.7303C42.4183 54.4538 43.4006 54.1883 44.3755 53.899C51.2777 51.8507 56.133 45.568 55.8492 38.6345C55.5985 32.5106 52.3563 27.8889 46.8648 25.231C41.4895 22.6293 35.9807 22.8201 30.6611 26.1054C18.3564 33.7044 17.1074 51.7052 27.2368 61.6705C35.118 69.4241 44.9536 73.2693 55.7268 75.1944C59.0679 75.7914 62.459 76.4829 65.8279 76.4866C70.7246 76.492 75.6677 76.1983 80.4997 75.4627C82.9124 75.0954 85.4057 73.8233 87.376 72.3448C96.6574 65.3797 105.862 58.3102 114.921 51.0722C126.852 41.5389 138.632 31.8522 151.794 23.8801C161.478 18.0147 171.578 13.0714 182.295 9.34318C192.691 5.72695 203.383 3.78317 214.48 3.48135C223.808 3.22764 232.715 4.58262 241.298 8.00011C243.733 8.96934 245.99 10.3705 248.294 11.6326C248.837 11.9296 249.241 12.4659 249.709 12.8922C249.651 13.0959 249.592 13.2996 249.534 13.5033C248.776 13.5033 248.014 13.5542 247.261 13.4957C236.649 12.6718 226.753 15.033 217.843 20.5623C208.357 26.4496 199.242 32.9034 189.831 38.9092C180.351 44.9584 170.948 51.1872 161.056 56.5367C153.162 60.8055 144.694 64.1447 136.277 67.3935C127.925 70.6168 119.405 73.4938 110.8 76.0068C101.032 78.8596 91.0912 81.1542 81.2124 83.6425C80.41 83.8446 79.5075 83.6692 78.6516 83.6692C78.5941 83.4633 78.5368 83.2575 78.4794 83.0516C79.0815 82.7454 79.6555 82.3607 80.29 82.1444C92.5607 77.9621 104.096 72.2421 115.111 65.6167C127.784 57.9934 140.111 49.8251 152.693 42.053C163.038 35.6623 173.536 29.5062 183.962 23.24C184.547 22.8881 185.098 22.481 185.665 22.0996C185.566 21.9348 185.468 21.77 185.37 21.6052C182.163 22.9633 178.93 24.2661 175.753 25.6893C162.324 31.7061 149.924 39.4909 137.351 46.979C127.293 52.969 117.304 59.0794 107.085 64.7981C100.223 68.6379 93.0076 71.875 85.9653 75.4102C84.425 76.1834 83.0137 77.2254 81.4305 77.8884C76.7346 79.8548 71.9984 81.7333 67.2416 83.5561C65.9897 84.0357 64.6061 84.1888 63.0976 84.5397Z" fill="#E5EAD2"/>
<path d="M240.375 49.3244C235.799 51.646 231.165 53.5678 226.142 52.1587C220.757 50.6481 215.679 48.3265 213.906 42.4097C212.346 37.2031 214.122 32.593 217.332 28.5473C220.914 24.0343 225.369 20.5037 231.235 19.1333C235.651 18.1015 240.103 17.8026 244.289 19.9682C252.431 24.1811 256.498 32.9263 249.06 41.7379C246.65 44.5919 243.393 46.7664 240.375 49.3244ZM221.01 39.3131C222.357 40.7256 224.003 40.9173 225.794 40.3773C229.655 39.2126 232.308 36.8111 233.682 33.0689C234.443 30.9988 234.246 29.0851 232.598 27.5721C230.894 26.0076 228.752 25.7336 226.699 26.7635C223.903 28.1658 221.552 30.0898 220.407 33.1153C219.632 35.1636 219.593 37.1369 221.01 39.3131Z" fill="#E5EAD2"/>
<path d="M150.828 76.4472C150.679 75.0408 150.344 73.7707 150.527 72.5763C151.777 64.4308 162.083 58.0473 170.214 60.2997C177.071 62.199 179.691 68.8431 176.063 74.776C173.164 79.5157 168.873 82.2006 163.493 83.3794C158.693 84.431 152.388 80.9967 150.828 76.4472ZM164.167 70.7333C164.938 69.213 165.205 67.453 163.64 66.562C162.462 65.8913 160.578 65.6878 159.272 66.0898C156.562 66.924 155.21 69.4404 155.391 72.1989C155.543 74.5234 156.824 75.6914 158.936 74.7729C160.823 73.9524 162.332 72.3061 164.167 70.7333Z" fill="#E5EAD2"/>
<path d="M63.0976 84.5397C53.7622 86.461 44.7833 85.7395 35.7858 83.377C28.3956 81.4365 21.8515 78.043 16.1356 73.2632C8.82594 67.1507 4.72554 59.0229 2.35269 50.077C-0.134184 40.7011 -0.301821 31.3296 2.66931 21.9372C7.02407 8.17075 19.8639 -0.227174 34.8245 1.00381C40.483 1.46939 45.8831 2.69814 50.9115 5.25956C59.909 9.84272 64.7118 17.2341 66.3242 26.9067C67.391 33.306 66.1856 39.3721 63.3438 44.947C60.0165 51.4742 54.4967 55.7831 46.7417 56.492C45.0093 56.6504 43.1879 55.8837 41.4075 55.5429C41.4181 55.272 41.4287 55.0011 41.4394 54.7303C42.4183 54.4538 43.4006 54.1883 44.3755 53.899C51.2777 51.8507 56.133 45.568 55.8492 38.6345C55.5985 32.5106 52.3563 27.8889 46.8648 25.231C41.4895 22.6293 35.9807 22.8201 30.6611 26.1054C18.3564 33.7044 17.1074 51.7052 27.2368 61.6705C35.118 69.4241 44.9536 73.2693 55.7268 75.1944C59.0679 75.7914 62.459 76.4829 65.8279 76.4866C70.7246 76.492 75.6677 76.1983 80.4997 75.4627C82.9124 75.0954 85.4057 73.8233 87.376 72.3448C96.6574 65.3797 105.862 58.3102 114.921 51.0722C126.852 41.5389 138.632 31.8522 151.794 23.8801C161.478 18.0147 171.578 13.0714 182.295 9.34318C192.691 5.72695 203.383 3.78317 214.48 3.48135C223.808 3.22764 232.715 4.58262 241.298 8.00011C243.733 8.96934 245.99 10.3705 248.294 11.6326C248.837 11.9296 249.241 12.4659 249.709 12.8922C249.651 13.0959 249.592 13.2996 249.534 13.5033C248.776 13.5033 248.014 13.5542 247.261 13.4957C236.649 12.6718 226.753 15.033 217.843 20.5623C208.357 26.4496 199.242 32.9034 189.831 38.9092C180.351 44.9584 170.948 51.1872 161.056 56.5367C153.162 60.8055 144.694 64.1447 136.277 67.3935C127.925 70.6168 119.405 73.4938 110.8 76.0068C101.032 78.8596 91.0912 81.1542 81.2124 83.6425C80.41 83.8446 79.5075 83.6692 78.6516 83.6692C78.5941 83.4633 78.5368 83.2575 78.4794 83.0516C79.0815 82.7454 79.6555 82.3607 80.29 82.1444C92.5607 77.9621 104.096 72.2421 115.111 65.6167C127.784 57.9934 140.111 49.8251 152.693 42.053C163.038 35.6623 173.536 29.5062 183.962 23.24C184.547 22.8881 185.098 22.481 185.665 22.0996C185.566 21.9348 185.468 21.77 185.37 21.6052C182.163 22.9633 178.93 24.2661 175.753 25.6893C162.324 31.7061 149.924 39.4909 137.351 46.979C127.293 52.969 117.304 59.0794 107.085 64.7981C100.223 68.6379 93.0076 71.875 85.9653 75.4102C84.425 76.1834 83.0137 77.2254 81.4305 77.8884C76.7346 79.8548 71.9984 81.7333 67.2416 83.5561C65.9897 84.0357 64.6061 84.1888 63.0976 84.5397Z" fill="#E5EAD2"/>
<path d="M240.375 49.3244C235.799 51.646 231.165 53.5678 226.142 52.1587C220.757 50.6481 215.679 48.3265 213.906 42.4097C212.346 37.2031 214.122 32.593 217.332 28.5473C220.914 24.0343 225.369 20.5037 231.235 19.1333C235.651 18.1015 240.103 17.8026 244.289 19.9682C252.431 24.1811 256.498 32.9263 249.06 41.7379C246.65 44.5919 243.393 46.7664 240.375 49.3244ZM221.01 39.3131C222.357 40.7256 224.003 40.9173 225.794 40.3773C229.655 39.2126 232.308 36.8111 233.682 33.0689C234.443 30.9988 234.246 29.0851 232.598 27.5721C230.894 26.0076 228.752 25.7336 226.699 26.7635C223.903 28.1658 221.552 30.0898 220.407 33.1153C219.632 35.1636 219.593 37.1369 221.01 39.3131Z" fill="#E5EAD2"/>
<path d="M150.828 76.4472C150.679 75.0408 150.344 73.7707 150.527 72.5763C151.777 64.4308 162.083 58.0473 170.214 60.2997C177.071 62.199 179.691 68.8431 176.063 74.776C173.164 79.5157 168.873 82.2006 163.493 83.3794C158.693 84.431 152.388 80.9967 150.828 76.4472ZM164.167 70.7333C164.938 69.213 165.205 67.453 163.64 66.562C162.462 65.8913 160.578 65.6878 159.272 66.0898C156.562 66.924 155.21 69.4404 155.391 72.1989C155.543 74.5234 156.824 75.6914 158.936 74.7729C160.823 73.9524 162.332 72.3061 164.167 70.7333Z" fill="#E5EAD2"/>
</svg>
