<svg width="400" height="154" viewBox="0 0 400 154" fill="none" xmlns="http://www.w3.org/2000/svg">
<path d="M328.52 100.898C322.618 107.565 315.507 111.62 306.808 113.14C292.845 115.58 280.594 102.547 284.658 89.4494C288.816 76.0454 304.799 65.9992 318.324 68.3318C324.721 69.435 329.537 72.8752 332.909 78.1966C335.874 82.8764 335.713 87.8366 333.437 92.683C332.124 95.4791 330.286 98.0421 328.52 100.898ZM293.055 86.8533C292.863 88.4259 292.465 90.0058 292.518 91.5697C292.686 96.5022 295.085 98.259 300.081 97.3007C305.016 96.3539 310.181 90.3935 310.325 85.4777C310.446 81.3409 307.339 78.6224 303.052 79.2399C298.512 79.8938 295.566 82.7237 293.055 86.8533Z" fill="#3A356B"/>
<path d="M104.399 146.102C90.0661 149.882 76.0611 149.527 61.8873 146.626C50.2456 144.243 39.7939 139.531 30.5099 132.596C18.6373 123.728 11.5766 111.456 7.12879 97.766C2.46724 83.4183 1.40762 68.8795 5.22041 54.0406C10.8088 32.2912 30.0316 18.155 53.369 18.7906C62.1957 19.031 70.6863 20.4785 78.7135 24.0273C93.0766 30.3771 101.165 41.4456 104.494 56.3287C106.697 66.1751 105.342 75.698 101.404 84.5977C96.7943 95.0175 88.5902 102.18 76.6078 103.942C73.9311 104.336 71.0372 103.3 68.2433 102.923C68.2367 102.501 68.2301 102.08 68.2235 101.658C69.7201 101.146 71.2229 100.65 72.7121 100.117C83.2559 96.3476 90.2599 86.1771 89.2278 75.4342C88.3162 65.9457 82.8871 59.0452 74.1327 55.3861C65.5634 51.8044 57.0252 52.5706 49.0445 58.126C30.5846 70.976 30.1804 99.036 46.7602 113.647C59.6603 125.016 75.2619 130.148 92.1559 132.219C97.3953 132.861 102.72 133.645 107.952 133.364C115.557 132.955 123.208 132.077 130.649 130.522C134.364 129.746 138.127 127.558 141.061 125.094C154.88 113.486 168.571 101.723 182.021 89.7106C199.737 73.8886 217.203 57.8414 236.963 44.3389C251.501 34.4045 266.763 25.8666 283.088 19.163C298.923 12.6607 315.362 8.73022 332.568 7.31509C347.032 6.12549 360.979 7.46996 374.6 12.0449C378.463 13.3424 382.087 15.3257 385.774 17.0891C386.641 17.5041 387.315 18.3025 388.078 18.9245C388.005 19.2458 387.931 19.5672 387.858 19.8885C386.681 19.9531 385.503 20.097 384.328 20.0705C367.778 19.6961 352.612 24.2069 339.248 33.5533C325.018 43.5048 311.415 54.3043 297.312 64.4334C283.107 74.6359 269.036 85.1106 254.131 94.2615C242.236 101.564 229.371 107.472 216.577 113.234C203.883 118.952 190.897 124.147 177.749 128.783C162.823 134.046 147.582 138.457 132.453 143.164C131.224 143.546 129.808 143.351 128.479 143.424C128.372 143.109 128.265 142.794 128.159 142.48C129.068 141.953 129.926 141.306 130.893 140.916C149.591 133.375 167.017 123.509 183.557 112.28C202.587 99.3614 221.033 85.6254 239.908 72.4831C255.428 61.6766 271.205 51.2213 286.861 40.6013C287.74 40.0049 288.561 39.3258 289.408 38.6851C289.242 38.4376 289.075 38.19 288.909 37.9424C284.044 40.325 279.134 42.6239 274.323 45.1048C253.982 55.5938 235.39 68.7403 216.504 81.4412C201.396 91.6009 186.405 101.942 171.023 111.694C160.696 118.242 149.766 123.884 139.132 129.975C136.806 131.307 134.703 133.045 132.301 134.21C125.176 137.664 117.982 140.985 110.75 144.221C108.847 145.073 106.712 145.429 104.399 146.102Z" fill="#3A356B"/>
<path d="M376.69 76.2964C369.783 80.2919 362.75 83.6715 354.829 81.9117C346.338 80.0252 338.254 76.8531 334.997 67.816C332.131 59.8638 334.495 52.5532 339.135 45.9968C344.312 38.6832 350.929 32.8204 359.921 30.1922C366.691 28.2132 373.58 27.3693 380.264 30.3752C393.268 36.223 400.33 49.4566 389.53 63.7746C386.032 68.412 381.159 72.0665 376.69 76.2964ZM345.764 62.4015C347.976 64.4801 350.55 64.6372 353.284 63.646C359.181 61.5081 363.095 57.5525 364.911 51.624C365.915 48.3444 365.446 45.3894 362.758 43.1805C359.978 40.8963 356.628 40.6534 353.528 42.4279C349.307 44.8439 345.819 48.0323 344.299 52.8283C343.27 56.0752 343.379 59.1428 345.764 62.4015Z" fill="#3A356B"/>
<path d="M239.947 126.053C239.595 123.882 238.966 121.938 239.149 120.067C240.396 107.312 255.855 96.5196 268.674 99.3239C279.484 101.689 284.119 111.783 278.991 121.305C274.895 128.913 268.459 133.448 260.205 135.738C252.841 137.78 242.758 132.985 239.947 126.053ZM260.174 116.042C261.24 113.615 261.506 110.859 258.999 109.609C257.113 108.668 254.169 108.513 252.175 109.249C248.038 110.775 246.154 114.798 246.67 119.066C247.104 122.663 249.193 124.368 252.395 122.761C255.255 121.326 257.458 118.641 260.174 116.042Z" fill="#3A356B"/>
</svg>
