<svg width="126" height="44" viewBox="0 0 126 44" fill="none" xmlns="http://www.w3.org/2000/svg">
<path d="M103.476 31.9043C101.475 33.9819 99.1336 35.182 96.3302 35.5234C91.8301 36.0714 88.148 31.5823 89.6748 27.3655C91.2374 23.0499 96.5154 20.0469 100.792 21.0542C102.814 21.5307 104.291 22.7441 105.274 24.5477C106.139 26.1339 106.001 27.7556 105.189 29.3021C104.721 30.1943 104.089 31.0007 103.476 31.9043ZM92.401 26.6662C92.3122 27.1778 92.1572 27.6881 92.1468 28.2013C92.114 29.82 92.849 30.4385 94.4604 30.2145C96.0525 29.9932 97.8056 28.1338 97.9378 26.5263C98.0491 25.1735 97.1049 24.2272 95.7255 24.3523C94.2648 24.4848 93.275 25.3588 92.401 26.6662Z" fill="#4E929D"/>
<path d="M31.1415 42.6784C26.5 43.6586 22.0356 43.2904 17.5621 42.0852C13.8877 41.0952 10.634 39.3639 7.792 36.9254C4.15762 33.807 2.11891 29.6604 0.939125 25.0965C-0.297351 20.3132 -0.3807 15.5321 1.09655 10.7404C3.26173 3.71716 9.6457 -0.567217 17.0841 0.060795C19.8975 0.298322 22.5824 0.925195 25.0826 2.23195C29.5561 4.57015 31.9441 8.34102 32.7458 13.2757C33.2761 16.5404 32.6768 19.6352 31.2639 22.4793C29.6096 25.8093 26.8652 28.0076 23.0093 28.3693C22.148 28.45 21.2424 28.0589 20.3572 27.885C20.3625 27.7468 20.3677 27.6087 20.373 27.4705C20.8597 27.3294 21.3481 27.194 21.8329 27.0464C25.2646 26.0014 27.6787 22.7962 27.5376 19.2589C27.413 16.1346 25.8009 13.7768 23.0706 12.4208C20.3979 11.0935 17.659 11.1908 15.0141 12.8669C8.89616 16.7437 8.27519 25.9272 13.3115 31.0111C17.2301 34.9668 22.1203 36.9286 27.4767 37.9107C29.1379 38.2152 30.824 38.568 32.499 38.5699C34.9336 38.5727 37.3913 38.4228 39.7938 38.0475C40.9934 37.8602 42.2331 37.2112 43.2127 36.4569C47.8274 32.9035 52.4039 29.2969 56.908 25.6042C62.8404 20.7406 68.6972 15.7987 75.2415 11.7316C80.0565 8.73926 85.0778 6.2173 90.4066 4.3153C95.5754 2.4704 100.892 1.47874 106.409 1.32477C111.047 1.19533 115.475 1.8866 119.743 3.6301C120.953 4.12458 122.076 4.83938 123.221 5.48327C123.491 5.63482 123.692 5.90844 123.925 6.1259C123.896 6.22983 123.867 6.33376 123.838 6.43769C123.461 6.43769 123.082 6.46361 122.708 6.43379C117.431 6.01344 112.511 7.21807 108.081 10.039C103.364 13.0425 98.8327 16.335 94.1533 19.399C89.4399 22.4852 84.7649 25.6629 79.8464 28.3921C75.9215 30.5699 71.7113 32.2734 67.5261 33.9309C63.3738 35.5753 59.1376 37.0431 54.8593 38.3251C50.0024 39.7806 45.0599 40.9512 40.1482 42.2206C39.7492 42.3238 39.3005 42.2342 38.8749 42.2342C38.8464 42.1292 38.8178 42.0242 38.7893 41.9192C39.0887 41.763 39.3741 41.5667 39.6895 41.4564C45.7905 39.3226 51.5259 36.4045 57.0025 33.0244C63.3038 29.1352 69.4328 24.968 75.6882 21.0029C80.8318 17.7426 86.0512 14.6019 91.2351 11.4051C91.5263 11.2255 91.8 11.0178 92.0819 10.8233C92.033 10.7392 91.9842 10.6551 91.9354 10.571C90.3408 11.2639 88.7332 11.9285 87.1539 12.6546C80.4768 15.7242 74.3117 19.6958 68.0602 23.516C63.0594 26.5719 58.0928 29.6892 53.012 32.6068C49.6005 34.5657 46.0127 36.2172 42.5113 38.0207C41.7455 38.4152 41.0438 38.9468 40.2566 39.285C37.9218 40.2883 35.567 41.2466 33.2019 42.1765C32.5795 42.4213 31.8915 42.4994 31.1415 42.6784Z" fill="#4E929D"/>
<path d="M119.284 24.7126C117.009 25.897 114.705 26.8774 112.207 26.1585C109.53 25.3879 107.005 24.2035 106.124 21.1849C105.348 18.5286 106.231 16.1767 107.827 14.1127C109.608 11.8103 111.823 10.0091 114.739 9.30996C116.935 8.78357 119.149 8.63109 121.23 9.73587C125.278 11.8852 127.3 16.3467 123.602 20.8422C122.404 22.2982 120.785 23.4075 119.284 24.7126ZM109.656 19.6051C110.325 20.3257 111.144 20.4235 112.034 20.148C113.954 19.5538 115.273 18.3287 115.956 16.4195C116.334 15.3634 116.236 14.387 115.417 13.6152C114.57 12.817 113.505 12.6772 112.484 13.2026C111.094 13.918 109.925 14.8996 109.356 16.4432C108.97 17.4881 108.951 18.4948 109.656 19.6051Z" fill="#4E929D"/>
<path d="M74.7613 38.55C74.6871 37.8325 74.5204 37.1845 74.6115 36.5751C75.2332 32.4196 80.357 29.1628 84.4 30.312C87.8092 31.2809 89.1119 34.6705 87.3079 37.6974C85.8668 40.1154 83.7331 41.4852 81.058 42.0866C78.6716 42.623 75.537 40.871 74.7613 38.55ZM81.3935 35.6349C81.7764 34.8593 81.9095 33.9614 81.1313 33.5068C80.5456 33.1647 79.6088 33.0608 78.9594 33.2659C77.6119 33.6915 76.9401 34.9753 77.0298 36.3826C77.1053 37.5685 77.7424 38.1644 78.7926 37.6958C79.7308 37.2772 80.4811 36.4373 81.3935 35.6349Z" fill="#4E929D"/>
</svg>
