<svg width="557" height="192" viewBox="0 0 557 192" fill="none" xmlns="http://www.w3.org/2000/svg">
<path d="M458.376 141.328C449.512 150.531 439.142 155.847 426.724 157.359C406.789 159.787 390.478 139.901 397.242 121.221C404.164 102.104 427.544 88.8018 446.488 93.264C455.447 95.3744 461.99 100.75 466.345 108.739C470.174 115.766 469.561 122.95 465.966 129.8C463.892 133.752 461.094 137.325 458.376 141.328ZM409.318 118.124C408.925 120.39 408.238 122.651 408.192 124.924C408.047 132.094 411.303 134.834 418.441 133.842C425.494 132.862 433.259 124.625 433.845 117.504C434.338 111.512 430.156 107.32 424.045 107.874C417.574 108.461 413.19 112.332 409.318 118.124Z" fill="#040404"/>
<path d="M137.95 189.056C117.389 193.398 97.613 191.767 77.7961 186.428C61.5194 182.043 47.1061 174.374 34.5168 163.572C18.4174 149.758 9.38629 131.389 4.16012 111.172C-1.3172 89.9831 -1.68642 68.8039 4.85746 47.5776C14.4488 16.4662 42.7284 -2.51265 75.679 0.269309C88.1416 1.3215 100.035 4.09841 111.11 9.88706C130.927 20.2448 141.505 36.9489 145.057 58.8085C147.406 73.2705 144.751 86.9795 138.492 99.5786C131.164 114.33 119.007 124.068 101.926 125.67C98.1108 126.027 94.0992 124.295 90.1778 123.525C90.2012 122.912 90.2247 122.3 90.2481 121.688C92.4041 121.063 94.5676 120.463 96.7148 119.81C111.917 115.181 122.611 100.982 121.986 85.3127C121.433 71.4729 114.292 61.028 102.198 55.0214C90.3584 49.1417 78.2255 49.573 66.5091 56.9975C39.4081 74.1709 36.6573 114.852 58.967 137.373C76.3254 154.895 97.9881 163.585 121.716 167.936C129.075 169.285 136.543 170.848 143.964 170.856C154.748 170.868 165.635 170.205 176.278 168.542C181.592 167.712 187.083 164.837 191.423 161.496C211.865 145.755 232.138 129.779 252.09 113.421C278.369 91.8764 304.314 69.985 333.304 51.9685C354.633 38.713 376.876 27.5413 400.482 19.1158C423.378 10.9433 446.928 6.55051 471.368 5.86843C491.913 5.29503 511.531 8.35722 530.435 16.0806C535.797 18.271 540.768 21.4374 545.844 24.2897C547.038 24.961 547.929 26.1731 548.959 27.1364C548.831 27.5968 548.703 28.0572 548.574 28.5176C546.905 28.5176 545.227 28.6324 543.568 28.5003C520.195 26.6382 498.399 31.9745 478.775 44.4704C457.882 57.7754 437.807 72.3606 417.078 85.9333C396.199 99.6044 375.49 113.681 353.702 125.771C336.316 135.418 317.665 142.964 299.126 150.306C280.732 157.591 261.967 164.093 243.015 169.772C221.5 176.219 199.606 181.405 177.848 187.028C176.08 187.485 174.093 187.089 172.207 187.089C172.081 186.623 171.955 186.158 171.828 185.693C173.154 185.001 174.419 184.131 175.816 183.643C202.842 174.191 228.248 161.264 252.508 146.291C280.422 129.063 307.572 110.603 335.282 93.0383C358.067 78.5957 381.188 64.6831 404.152 50.5219C405.441 49.7267 406.654 48.8067 407.903 47.9447C407.686 47.5722 407.47 47.1997 407.254 46.8272C400.19 49.8966 393.069 52.8408 386.073 56.0571C356.495 69.6548 329.185 87.2479 301.492 104.171C279.339 117.708 257.339 131.517 234.832 144.441C219.719 153.119 203.826 160.434 188.316 168.424C184.923 170.171 181.815 172.526 178.328 174.024C167.985 178.468 157.554 182.714 147.077 186.833C144.32 187.917 141.273 188.263 137.95 189.056Z" fill="#030304"/>
<path d="M528.401 109.471C518.323 114.718 508.116 119.061 497.052 115.877C485.192 112.463 474.008 107.216 470.104 93.8444C466.669 82.0779 470.579 71.6591 477.65 62.5161C485.538 52.317 495.351 44.338 508.269 41.2411C517.997 38.9093 527.803 38.2338 537.021 43.1278C554.955 52.6488 563.912 72.4125 547.529 92.3262C542.222 98.7761 535.049 103.69 528.401 109.471ZM485.749 86.8463C488.716 90.0384 492.343 90.4716 496.286 89.2513C504.791 86.6192 510.633 81.192 513.661 72.7347C515.336 68.0563 514.901 63.7315 511.272 60.3123C507.518 56.7765 502.801 56.1573 498.279 58.4848C492.122 61.6539 486.943 66.0021 484.422 72.8396C482.715 77.4686 482.629 81.9281 485.749 86.8463Z" fill="#030304"/>
<path d="M331.177 170.767C330.848 167.589 330.109 164.719 330.513 162.019C333.267 143.611 355.964 129.184 373.874 134.275C388.976 138.567 394.746 153.582 386.755 166.99C380.372 177.702 370.92 183.77 359.07 186.434C348.498 188.81 334.613 181.049 331.177 170.767ZM360.556 157.854C362.252 154.418 362.842 150.441 359.394 148.427C356.8 146.912 352.65 146.451 349.773 147.36C343.804 149.245 340.828 154.932 341.225 161.166C341.56 166.42 344.382 169.059 349.034 166.983C353.19 165.129 356.514 161.409 360.556 157.854Z" fill="#040505"/>
</svg>
