<svg width="320" height="80" viewBox="0 0 320 80" fill="none" xmlns="http://www.w3.org/2000/svg">
    <g clipPath="url(#clip0_25_1806)">
        <path
            d="M0 10C0 4.5 4.5 0 10 0H310C315.5 0 320 4.5 320 10V69.668C320 75.168 315.5 79.668 310 79.668H10C4.5 79.668 0 75.168 0 69.668V10Z"
            fill="white" />
        <path d="M8.75195 7.40198H311.22V72.3H8.75195V7.40198Z" fill="white" />
        <path
            d="M81.4819 46.838C81.4819 41.289 84.3299 38.1 88.5399 38.1C91.1679 38.1 92.4099 38.611 93.2139 39.171V41.823H91.8019C91.3399 39.949 90.5849 39.098 88.4679 39.098C85.5719 39.098 83.7449 41.094 83.7449 46.788C83.7449 52.679 85.6429 54.285 88.7359 54.285C90.7309 54.285 91.6799 53.555 92.0459 51.656H93.3349V54.139L93.4079 54.089C92.5559 54.697 91.1209 55.283 88.7359 55.283C83.7459 55.285 81.4819 52.022 81.4819 46.838ZM104.384 53.021L104.773 53.702C103.629 54.579 102.267 55.285 100.612 55.285C97.2279 55.285 95.1829 52.973 95.1829 49.029C95.1829 45.109 97.3489 42.822 100.27 42.822C103.24 42.822 104.992 44.916 104.992 48.567V49.15H97.2279C97.2769 52.801 98.5419 53.97 101.195 53.97C102.243 53.971 103.534 53.556 104.384 53.021ZM97.2529 48.104H102.973C102.973 45.037 102.17 43.844 100.223 43.844C98.4949 43.845 97.4479 44.867 97.2529 48.104ZM113.632 42.822C113.851 42.822 114.07 42.87 114.24 42.92L113.728 45.159C113.583 45.109 113.388 45.086 113.071 45.086C111.076 45.086 110.297 46.012 110.297 48.348V52.559C110.297 53.898 110.735 54.214 112.365 54.335V55.017H106.67V54.335C107.961 54.214 108.374 53.922 108.374 52.559V46.57C108.374 44.818 108.008 44.502 106.597 44.427V43.82L109.493 42.895H109.81C109.98 43.333 110.223 44.356 110.248 45.621C111.125 44.113 112.292 42.822 113.632 42.822ZM121.396 44.404H118.815V51.828C118.815 53.775 119.181 54.237 120.519 54.237C120.91 54.237 121.323 54.165 121.786 54.018L121.955 54.797C121.202 55.161 120.423 55.357 119.692 55.357C117.866 55.357 116.893 54.53 116.893 52.143V44.404H115.433V43.747L117.063 43.212C117.282 42.044 117.574 40.705 118.085 39.853L119.034 39.634C118.911 40.511 118.838 41.946 118.838 43.212H121.71L121.396 44.404ZM123.219 55.017V54.335C124.51 54.214 124.924 53.922 124.924 52.559V46.546C124.924 44.794 124.559 44.477 123.148 44.404V43.796L126.532 42.896H126.847V52.559C126.847 53.898 127.164 54.214 128.551 54.335V55.017H123.219ZM125.727 40.875C124.899 40.875 124.291 40.243 124.291 39.415C124.291 38.588 124.899 37.955 125.727 37.955C126.554 37.955 127.164 38.588 127.164 39.415C127.163 40.242 126.554 40.875 125.727 40.875ZM133.709 52.559C133.709 53.873 133.977 54.238 135.291 54.335V55.017H130.083V54.335C131.374 54.214 131.787 53.922 131.787 52.559V44.405H130.253V43.748L131.787 43.188V41.533C131.787 39.001 133.442 37.395 136.12 37.395C137.239 37.395 138.334 37.565 138.943 37.785V39.878H137.458C137.337 39.051 136.801 38.442 135.901 38.442C134.391 38.442 133.686 39.464 133.686 41.509V43.212H139.089L140.257 42.896H140.573V52.559C140.573 53.898 140.89 54.214 142.277 54.335V55.017H137.045V54.335C138.334 54.237 138.651 53.971 138.651 52.559V46.546C138.651 44.867 138.334 44.404 136.898 44.404H133.711V52.559H133.709ZM153.13 53.021L153.52 53.702C152.376 54.579 151.012 55.285 149.357 55.285C145.974 55.285 143.929 52.973 143.929 49.029C143.929 45.109 146.096 42.822 149.017 42.822C151.985 42.822 153.738 44.916 153.738 48.567V49.15H145.973C146.021 52.801 147.288 53.97 149.941 53.97C150.988 53.971 152.279 53.556 153.13 53.021ZM145.999 48.104H151.719C151.719 45.037 150.917 43.844 148.969 43.844C147.24 43.845 146.193 44.867 145.999 48.104ZM160.187 55.26C157.779 55.26 155.539 53.605 155.539 49.224C155.539 45.475 157.364 42.92 160.383 42.92C161.55 42.92 162.793 43.431 163.838 44.551V40.875C163.838 39.099 163.4 38.807 161.988 38.733V38.076L165.421 37.394H165.761V51.73C165.761 53.484 166.153 53.798 167.684 53.873V54.481C166.71 54.773 165.664 55.065 164.692 55.334H164.472C164.162 54.6786 163.948 53.9817 163.838 53.265C162.914 54.434 161.428 55.26 160.187 55.26ZM160.577 54.042C161.721 54.042 162.816 53.19 163.838 52.022V45.718C163.06 44.769 161.843 44.16 160.747 44.16C158.799 44.16 157.631 45.085 157.631 48.931C157.631 52.753 158.556 54.042 160.577 54.042ZM178.658 52.315C178.658 53.751 179.096 54.237 180.8 54.31V55.016H174.691V54.31C176.177 54.189 176.639 53.727 176.639 52.387V41.021C176.639 39.682 176.177 39.219 174.691 39.098V38.392H180.68C185.352 38.392 186.812 40.485 186.812 43.138C186.812 46.23 184.89 48.031 181.312 48.031H178.659V52.315H178.658ZM180.728 39.439H178.659V47.009H181.167C183.674 47.009 184.646 45.963 184.646 43.407C184.646 40.511 183.867 39.439 180.728 39.439ZM195.28 42.822C195.499 42.822 195.719 42.87 195.889 42.92L195.377 45.159C195.231 45.109 195.036 45.086 194.721 45.086C192.724 45.086 191.945 46.012 191.945 48.348V52.559C191.945 53.898 192.383 54.214 194.016 54.335V55.017H188.319V54.335C189.608 54.214 190.023 53.922 190.023 52.559V46.57C190.023 44.818 189.658 44.502 188.247 44.427V43.82L191.143 42.895H191.458C191.629 43.333 191.873 44.356 191.896 45.621C192.773 44.113 193.942 42.822 195.28 42.822ZM208.106 54.237V54.943C207.742 55.065 207.133 55.162 206.573 55.162C204.967 55.162 204.626 54.359 204.455 53.141C203.969 54.116 202.776 55.357 201.024 55.357C198.785 55.357 197.251 54.14 197.251 51.974C197.251 49.101 199.758 48.128 203.481 48.128C203.774 48.128 204.165 48.128 204.48 48.151V47.007C204.48 44.865 203.968 43.916 202.119 43.916C199.977 43.916 199.346 44.963 199.149 46.106H197.908V44.037C198.929 43.476 200.732 42.845 202.313 42.845C204.942 42.845 206.402 44.062 206.402 46.862C206.402 47.666 206.306 49.71 206.306 51.899C206.307 53.702 206.622 54.091 208.106 54.237ZM204.431 49.175C204.099 49.1442 203.767 49.1279 203.434 49.126C200.563 49.126 199.321 49.905 199.321 51.804C199.321 53.556 200.052 54.116 201.559 54.116C202.777 54.116 203.775 53.167 204.359 52.143L204.431 49.175ZM218.499 45.963H217.135C216.892 44.525 216.357 43.894 214.945 43.894C212.999 43.894 211.683 45.134 211.683 48.811C211.683 52.753 212.852 54.091 215.213 54.091C216.697 54.091 217.403 53.679 218.426 52.826L218.938 53.361C217.89 54.53 216.577 55.285 214.874 55.285C211.952 55.285 209.567 53.337 209.567 49.297C209.567 45.134 211.903 42.92 214.994 42.92C216.747 42.92 217.867 43.407 218.5 43.796V45.963H218.499ZM226.48 44.404H223.899V51.828C223.899 53.775 224.264 54.237 225.603 54.237C225.994 54.237 226.406 54.165 226.869 54.018L227.039 54.797C226.286 55.161 225.506 55.357 224.776 55.357C222.95 55.357 221.977 54.53 221.977 52.143V44.404H220.516V43.747L222.147 43.212C222.366 42.044 222.658 40.705 223.169 39.853L224.118 39.634C223.995 40.511 223.923 41.946 223.923 43.212H226.795L226.48 44.404ZM228.304 55.017V54.335C229.595 54.214 230.009 53.922 230.009 52.559V46.546C230.009 44.794 229.643 44.477 228.232 44.404V43.796L231.616 42.896H231.931V52.559C231.931 53.898 232.247 54.214 233.634 54.335V55.017H228.304ZM230.812 40.875C229.984 40.875 229.376 40.243 229.376 39.415C229.376 38.588 229.983 37.955 230.812 37.955C231.639 37.955 232.248 38.588 232.248 39.415C232.247 40.242 231.639 40.875 230.812 40.875ZM241.082 44.404H238.502V51.828C238.502 53.775 238.866 54.237 240.206 54.237C240.596 54.237 241.01 54.165 241.473 54.018L241.642 54.797C240.887 55.161 240.109 55.357 239.378 55.357C237.554 55.357 236.579 54.53 236.579 52.143V44.404H235.118V43.747L236.749 43.212C236.968 42.044 237.26 40.705 237.771 39.853L238.72 39.634C238.599 40.511 238.525 41.946 238.525 43.212H241.398L241.082 44.404ZM242.906 55.017V54.335C244.197 54.214 244.609 53.922 244.609 52.559V46.546C244.609 44.794 244.244 44.477 242.833 44.404V43.796L246.217 42.896H246.533V52.559C246.533 53.898 246.848 54.214 248.237 54.335V55.017H242.906ZM245.413 40.875C244.586 40.875 243.976 40.243 243.976 39.415C243.976 38.588 244.585 37.955 245.413 37.955C246.241 37.955 246.849 38.588 246.849 39.415C246.849 40.242 246.241 40.875 245.413 40.875ZM255.343 55.309C251.984 55.309 249.891 53.045 249.891 49.078C249.891 45.183 251.984 42.848 255.294 42.848C258.921 42.848 260.794 45.574 260.794 49.201C260.794 53.021 258.532 55.309 255.343 55.309ZM255.294 43.894C252.738 43.894 251.983 45.768 251.983 48.834C251.983 52.559 252.909 54.262 255.39 54.262C257.582 54.262 258.701 52.486 258.701 49.297C258.701 45.523 257.509 43.894 255.294 43.894ZM273.499 52.559C273.499 53.971 273.791 54.238 275.08 54.335V55.017H269.871V54.335C271.259 54.214 271.575 53.897 271.575 52.729V46.546C271.575 45.062 270.92 44.477 269.653 44.477C268.144 44.477 267.17 45.208 266.148 46.255V52.729C266.148 53.898 266.463 54.214 267.852 54.335V55.017H262.521V54.335C263.812 54.214 264.225 53.922 264.225 52.559V46.57C264.225 44.818 263.859 44.502 262.447 44.427V43.82L265.369 42.895H265.685C265.831 43.259 266.026 44.282 266.051 45.159C267.267 43.893 268.581 42.92 270.359 42.92C272.207 42.92 273.499 44.039 273.499 46.108V52.559ZM285.934 53.021L286.325 53.702C285.181 54.579 283.818 55.285 282.163 55.285C278.778 55.285 276.734 52.973 276.734 49.029C276.734 45.109 278.901 42.822 281.822 42.822C284.791 42.822 286.543 44.916 286.543 48.567V49.15H278.778C278.827 52.801 280.093 53.97 282.746 53.97C283.792 53.971 285.081 53.556 285.934 53.021ZM278.803 48.104H284.522C284.522 45.037 283.72 43.844 281.774 43.844C280.044 43.845 278.997 44.867 278.803 48.104ZM295.182 42.822C295.4 42.822 295.62 42.87 295.791 42.92L295.279 45.159C295.133 45.109 294.936 45.086 294.622 45.086C292.626 45.086 291.847 46.012 291.847 48.348V52.559C291.847 53.898 292.285 54.214 293.916 54.335V55.017H288.219V54.335C289.511 54.214 289.925 53.922 289.925 52.559V46.57C289.925 44.818 289.559 44.502 288.147 44.427V43.82L291.045 42.895H291.36C291.531 43.333 291.774 44.356 291.798 45.621C292.675 44.113 293.844 42.822 295.182 42.822Z"
            fill="#5BBDB8" />
        <path
            d="M86.4668 25.231V26.479H84.6418V31.63H83.2318V26.479H81.4058V25.231H86.4668ZM89.0438 25.231V27.617H91.7818V25.231H93.1918V31.63H91.7818V28.864H89.0438V31.63H87.6338V25.231H89.0438ZM99.3468 25.231V26.532H96.4098V27.726H99.1848V29.027H96.4098V30.328H99.5108V31.629H94.9998V25.23H99.3468V25.231ZM105.61 25.231V31.63H104.2V25.231H105.61ZM109.262 25.231L111.983 29.678H112V25.231H113.411V31.63H111.567L108.774 27.075H108.757V31.63H107.347V25.231H109.262ZM117.333 25.068C118.129 25.068 118.782 25.291 119.295 25.736L118.327 26.794C118.205 26.6452 118.043 26.5339 117.861 26.473C117.683 26.4074 117.495 26.3725 117.306 26.37C117.069 26.3621 116.834 26.4248 116.633 26.55C116.448 26.67 116.357 26.831 116.357 27.029C116.357 27.204 116.428 27.35 116.569 27.467C116.71 27.586 116.932 27.687 117.233 27.77C117.926 27.974 118.386 28.152 118.612 28.303C118.838 28.454 119.009 28.643 119.128 28.868C119.245 29.095 119.304 29.367 119.304 29.686C119.304 30.331 119.079 30.843 118.632 31.223C118.182 31.602 117.585 31.793 116.837 31.793C115.975 31.793 115.258 31.524 114.686 30.989L115.689 29.885C116.003 30.29 116.412 30.492 116.918 30.492C117.189 30.492 117.42 30.43 117.609 30.311C117.799 30.19 117.894 30.027 117.894 29.823C117.894 29.484 117.605 29.226 117.027 29.045C116.292 28.822 115.813 28.635 115.59 28.481C115.367 28.327 115.195 28.145 115.074 27.934C114.954 27.723 114.894 27.461 114.894 27.147C114.894 26.533 115.122 26.033 115.577 25.647C116.03 25.262 116.615 25.068 117.333 25.068ZM125.277 25.231V26.479H123.45V31.63H122.041V26.479H120.215V25.231H125.277ZM127.835 25.231V31.63H126.425V25.231H127.835ZM134.044 25.231V26.479H132.218V31.63H130.808V26.479H128.982V25.231H134.044ZM136.619 25.231V29.127C136.619 29.524 136.744 29.852 136.995 30.107C137.244 30.364 137.551 30.492 137.912 30.492C138.279 30.492 138.584 30.358 138.829 30.089C139.07 29.8275 139.201 29.4829 139.195 29.127V25.231H140.605V29.19C140.605 29.973 140.363 30.603 139.882 31.08C139.4 31.556 138.743 31.794 137.912 31.794C137.087 31.794 136.43 31.557 135.942 31.084C135.454 30.611 135.21 29.979 135.21 29.19V25.231H136.619ZM146.833 25.231V26.479H145.008V31.63H143.598V26.479H141.772V25.231H146.833ZM152.4 25.231V26.532H149.463V27.726H152.237V29.027H149.463V30.328H152.563V31.629H148.053V25.23H152.4V25.231ZM161.62 25.231V26.532H158.736V27.833H161.402V29.136H158.736V31.63H157.326V25.231H161.62ZM166.193 25.068C167.216 25.068 168.048 25.376 168.686 25.99C169.326 26.605 169.645 27.419 169.645 28.43C169.645 29.438 169.322 30.249 168.677 30.867C168.032 31.484 167.203 31.794 166.193 31.794C165.168 31.794 164.336 31.482 163.698 30.862C163.059 30.241 162.74 29.432 162.74 28.43C162.74 27.43 163.057 26.619 163.693 25.999C164.33 25.379 165.162 25.068 166.193 25.068ZM164.203 28.43C164.203 29.051 164.39 29.55 164.76 29.926C165.13 30.303 165.609 30.492 166.194 30.492C166.791 30.492 167.269 30.299 167.633 29.912C167.998 29.527 168.181 29.033 168.181 28.43C168.181 27.816 167.995 27.32 167.624 26.939C167.255 26.559 166.773 26.37 166.184 26.37C165.592 26.37 165.116 26.562 164.752 26.948C164.387 27.334 164.203 27.829 164.203 28.43ZM173.576 25.231C174.36 25.231 174.951 25.398 175.347 25.732C175.745 26.067 175.945 26.547 175.945 27.173C175.945 27.644 175.822 28.033 175.578 28.34C175.334 28.648 174.995 28.842 174.562 28.927L176.189 31.629H174.498L173.162 29.071H172.465V31.629H171.056V25.23H173.576V25.231ZM173.342 27.88C173.758 27.88 174.052 27.824 174.224 27.713C174.395 27.601 174.481 27.419 174.481 27.165C174.481 26.671 174.129 26.424 173.425 26.424H172.465V27.88H173.342ZM184.839 25.231V26.532H181.955V27.833H184.622V29.136H181.955V31.63H180.545V25.231H184.839ZM187.713 25.231V29.127C187.713 29.524 187.837 29.852 188.087 30.107C188.337 30.364 188.643 30.492 189.004 30.492C189.371 30.492 189.679 30.358 189.922 30.089C190.167 29.821 190.288 29.5 190.288 29.127V25.231H191.698V29.19C191.698 29.973 191.457 30.603 190.974 31.08C190.492 31.556 189.835 31.794 189.003 31.794C188.179 31.794 187.521 31.557 187.032 31.084C186.545 30.611 186.302 29.979 186.302 29.19V25.231H187.713ZM195.368 25.231L198.087 29.678H198.107V25.231H199.517V31.63H197.673L194.88 27.075H194.86V31.63H193.452V25.231H195.368ZM204.379 25.068C204.8 25.068 205.206 25.148 205.595 25.308C205.983 25.468 206.297 25.701 206.538 26.008L205.454 26.893C205.158 26.544 204.755 26.37 204.243 26.37C203.712 26.37 203.271 26.563 202.919 26.952C202.565 27.341 202.39 27.833 202.39 28.43C202.39 29.003 202.559 29.49 202.896 29.89C203.234 30.292 203.667 30.492 204.198 30.492C204.765 30.492 205.205 30.263 205.517 29.805L206.692 30.68C206.451 31.0285 206.123 31.3075 205.74 31.489C205.333 31.692 204.88 31.793 204.38 31.793C203.361 31.793 202.53 31.481 201.89 30.861C201.247 30.24 200.928 29.431 200.928 28.429C200.928 27.441 201.246 26.634 201.885 26.008C202.521 25.382 203.354 25.068 204.379 25.068ZM212.387 25.231V26.479H210.561V31.63H209.151V26.479H207.325V25.231H212.387ZM214.942 25.231V31.63H213.532V25.231H214.942ZM219.787 25.068C220.812 25.068 221.643 25.376 222.281 25.99C222.921 26.605 223.241 27.419 223.241 28.43C223.241 29.438 222.919 30.249 222.273 30.867C221.627 31.484 220.798 31.794 219.787 31.794C218.763 31.794 217.932 31.482 217.294 30.862C216.654 30.241 216.335 29.432 216.335 28.43C216.335 27.43 216.652 26.619 217.289 25.999C217.924 25.379 218.757 25.068 219.787 25.068ZM217.8 28.43C217.8 29.051 217.985 29.55 218.356 29.926C218.726 30.303 219.205 30.492 219.788 30.492C220.386 30.492 220.865 30.299 221.229 29.912C221.593 29.527 221.776 29.033 221.776 28.43C221.776 27.816 221.591 27.32 221.22 26.939C220.85 26.559 220.369 26.37 219.779 26.37C219.189 26.37 218.712 26.562 218.347 26.948C217.982 27.334 217.8 27.829 217.8 28.43ZM226.567 25.231L229.286 29.678H229.305V25.231H230.715V31.63H228.871L226.078 27.075H226.06V31.63H224.651V25.231H226.567ZM235.74 25.231L238.523 31.63H236.932L236.381 30.275H233.894L233.362 31.63H231.807L234.573 25.231H235.74ZM234.339 29.082H235.902L235.116 27.092L234.339 29.082ZM241.082 25.231V30.329H243.693V31.63H239.672V25.231H241.082ZM250.185 25.231L251.657 29.407H251.675L253.157 25.231H255.281V31.63H253.871V26.723H253.853L252.172 31.63H251.097L249.479 26.723H249.461V31.63H248.051V25.231H250.185ZM261.436 25.231V26.532H258.499V27.726H261.272V29.027H258.499V30.328H261.6V31.629H257.089V25.23H261.436V25.231ZM265.35 25.231C266.517 25.231 267.433 25.512 268.092 26.071C268.751 26.632 269.082 27.421 269.082 28.44C269.082 29.061 268.93 29.613 268.627 30.098C268.318 30.5866 267.877 30.978 267.355 31.227C266.813 31.495 266.202 31.629 265.521 31.629H263.181V25.23H265.35V25.231ZM265.369 30.329C266.102 30.329 266.662 30.162 267.046 29.828C267.427 29.493 267.617 29.013 267.617 28.387C267.617 27.821 267.423 27.369 267.03 27.035C266.638 26.701 266.114 26.534 265.456 26.534H264.591V30.33H265.369V30.329ZM271.883 25.231V31.63H270.473V25.231H271.883ZM276.728 25.068C277.15 25.068 277.555 25.148 277.944 25.308C278.333 25.468 278.648 25.701 278.889 26.008L277.804 26.893C277.51 26.544 277.106 26.37 276.594 26.37C276.344 26.3642 276.096 26.4134 275.867 26.5139C275.638 26.6145 275.434 26.764 275.269 26.952C274.917 27.341 274.741 27.833 274.741 28.43C274.741 29.003 274.91 29.49 275.247 29.89C275.585 30.292 276.018 30.492 276.55 30.492C277.116 30.492 277.556 30.263 277.868 29.805L279.043 30.68C278.801 31.0293 278.472 31.3084 278.088 31.489C277.665 31.6959 277.199 31.8 276.729 31.793C275.712 31.793 274.881 31.481 274.24 30.861C273.598 30.24 273.277 29.431 273.277 28.429C273.277 27.441 273.598 26.634 274.236 26.008C274.872 25.382 275.705 25.068 276.728 25.068ZM281.652 25.231V31.63H280.242V25.231H281.652ZM285.305 25.231L288.027 29.678H288.045V25.231H289.455V31.63H287.611L284.818 27.075H284.8V31.63H283.39V25.231H285.305ZM295.609 25.231V26.532H292.672V27.726H295.445V29.027H292.672V30.328H295.771V31.629H291.262V25.23H295.609V25.231Z"
            fill="#475764" />
        <path d="M8.41699 7.04504V72.623H311.584V7.04504H8.41699ZM310.845 71.892H9.15699V7.77504H310.845V71.892Z"
            fill="white" />
        <path
            d="M40.0731 32.299C39.3491 32.435 38.4021 34.396 38.7201 35.094C38.7761 35.219 38.8591 35.275 38.9591 35.275C39.2901 35.275 39.8011 34.652 40.1011 33.779C40.2291 33.4 40.5041 32.316 40.0731 32.299ZM43.8001 28.995H43.7721C42.4841 29.171 40.8761 30.979 41.4871 31.92C41.6471 32.171 41.9341 32.287 42.2691 32.287C43.0971 32.287 44.2231 31.584 44.5151 30.488C44.6451 29.998 44.6381 28.995 43.8001 28.995ZM35.7411 42.639C35.4941 42.639 35.2231 42.664 34.9431 42.719C34.5491 42.798 33.4741 43.102 33.6741 43.484C33.8761 43.716 34.3751 43.826 34.9191 43.826C35.6741 43.826 36.5121 43.62 36.7721 43.258C37.0321 42.896 36.5211 42.639 35.7411 42.639ZM30.4591 40.464C30.2691 40.464 30.0751 40.487 29.8851 40.541C29.3891 40.674 28.5101 41.191 28.9651 41.933C29.4561 42.566 30.5451 42.995 31.4291 42.995C31.9771 42.995 32.4431 42.832 32.6401 42.449C33.0561 41.642 31.8091 40.464 30.4591 40.464ZM46.3831 43.525C46.4182 43.5264 46.453 43.5185 46.4841 43.5022C46.5151 43.4859 46.5414 43.4617 46.5601 43.432C46.8011 42.739 45.5781 40.936 44.8151 40.862C44.7991 40.86 44.7821 40.86 44.7681 40.86C44.2451 40.86 44.4971 41.833 45.2631 42.716C45.4791 42.961 46.0551 43.525 46.3831 43.525ZM46.2201 44.845L46.1791 44.846C45.1451 44.893 44.7761 47.062 45.9051 48.184C46.1301 48.408 46.5551 48.684 46.9421 48.684C47.1851 48.684 47.4111 48.578 47.5701 48.286C48.0591 47.099 47.3181 44.845 46.2201 44.845Z"
            fill="#C6E1DE" />
        <path
            d="M58.595 35.814C58.789 35.814 58.933 35.702 58.997 35.457C59.297 34.271 57.291 31.427 56.134 31.4C55.47 31.539 56.188 33.182 56.492 33.746C57.161 34.985 58.065 35.814 58.595 35.814ZM54.881 31.416C55.294 30.092 52.97 28.455 51.303 28.455C51.205 28.455 51.11 28.462 51.015 28.473C49.928 28.737 50.266 30.032 50.603 30.616C51.211 31.682 52.44 32.219 53.433 32.219C54.133 32.217 54.716 31.951 54.881 31.416ZM54.759 33.803C54.184 33.47 53.679 33.328 53.256 33.328C52.425 33.328 51.908 33.874 51.801 34.622C51.53 36.425 53.534 38.678 55.202 38.678C55.353 38.678 55.503 38.659 55.647 38.619C57.292 38.169 57.053 35.356 54.759 33.803ZM58.519 36.982C58.48 36.982 58.441 36.984 58.403 36.988C57.311 37.41 57.209 39.812 57.483 41.382C57.75 42.899 58.416 44.094 59.086 44.094C59.304 44.094 59.519 43.971 59.722 43.691C60.888 42.086 60.256 36.982 58.519 36.982ZM25.097 30.128C25.612 30.128 26.43 29.004 26.721 28.539C27.658 27.016 27.832 25.49 27.123 25.49C27.0645 25.4906 27.0063 25.499 26.95 25.515C25.77 25.848 24.311 29.007 24.866 30.025C24.8947 30.058 24.9303 30.0843 24.9702 30.1021C25.0101 30.1199 25.0534 30.1287 25.097 30.128ZM25.716 31.077C25.646 31.077 25.576 31.084 25.506 31.1C24.075 31.424 23.87 34.579 24.889 35.917C25.104 36.144 25.332 36.233 25.557 36.233C26.142 36.233 26.707 35.626 26.951 35.204C27.95 33.493 26.944 31.077 25.716 31.077ZM29.194 32.291C29.399 32.291 29.612 32.249 29.824 32.163C31.673 31.435 32.636 28.096 31.359 26.834C31.2333 26.7056 31.0829 26.6039 30.9169 26.535C30.751 26.4661 30.5728 26.4314 30.393 26.433C29.199 26.433 27.786 27.88 27.632 30.011C27.631 31.585 28.358 32.291 29.194 32.291ZM29.35 25.5C30.399 25.5 31.891 24.654 32.834 23.863C34.396 22.555 35.123 20.919 33.715 20.769C33.6496 20.7621 33.5838 20.7588 33.518 20.759C31.439 20.759 27.495 23.844 28.571 25.261C28.777 25.43 29.045 25.5 29.35 25.5ZM37.094 56.928C37.023 56.925 36.952 56.925 36.884 56.925C35.065 56.925 33.715 57.608 34.362 58.241C34.713 58.582 35.473 58.735 36.302 58.735C37.549 58.735 38.946 58.385 39.308 57.79C39.518 57.145 37.736 56.946 37.094 56.928ZM42.752 53.395H42.737C40.652 53.395 39.001 55.706 39.919 56.698C40.164 56.965 40.52 57.079 40.928 57.079C42.177 57.079 43.909 55.994 44.402 54.823C44.717 53.75 43.425 53.395 42.752 53.395ZM37.914 55.398C39.615 54.42 39.58 53.132 38.684 52.425C38.169 52.018 37.461 51.836 36.726 51.836C35.223 51.836 33.605 52.594 33.299 53.758C32.989 54.94 34.213 55.889 35.846 55.889C36.5637 55.8844 37.2709 55.7165 37.914 55.398ZM29.987 53.969C29.268 53.706 28.569 53.568 28.005 53.568C27.069 53.568 26.509 53.948 26.868 54.755C27.476 56.12 30.313 57.593 32.049 57.593C32.666 57.593 33.143 57.408 33.331 56.962C33.514 55.805 31.486 54.517 29.987 53.969Z"
            fill="#35ABA4" />
        <path
            d="M47.4369 30.366H47.4259C46.2509 30.366 45.3839 30.994 45.4849 31.776C45.5889 32.558 46.6239 33.1961 47.8049 33.2001H47.816C48.988 33.2001 49.8539 32.573 49.7529 31.793C49.6509 31.009 48.6149 30.373 47.4369 30.366ZM47.3309 29.268H47.3519C48.3519 29.268 49.1569 28.8951 49.1609 28.4331C49.1639 27.9651 48.3519 27.582 47.3449 27.576H47.316C46.322 27.576 45.5199 27.946 45.5169 28.407C45.5109 28.874 46.327 29.26 47.3309 29.268ZM28.9769 35.16C28.7677 35.1581 28.5637 35.2256 28.3969 35.3521C27.7689 35.8311 27.7349 37.048 28.3179 38.072C28.7429 38.814 29.3769 39.25 29.9339 39.25C30.1439 39.25 30.3419 39.189 30.5149 39.056C31.1419 38.577 31.1739 37.3611 30.5899 36.3371C30.1649 35.5951 29.5319 35.16 28.9769 35.16ZM25.9999 37.4911C25.9239 37.4895 25.8488 37.5089 25.7829 37.5471C25.3769 37.7761 25.4499 38.673 25.9469 39.548C26.3639 40.283 26.9499 40.771 27.3649 40.771C27.4449 40.771 27.5179 40.753 27.5829 40.715C27.9909 40.4851 27.9159 39.589 27.4199 38.71C27.0009 37.977 26.4169 37.4911 25.9999 37.4911ZM44.3069 48.3801C44.1732 48.3263 44.0301 48.2995 43.886 48.301C43.2099 48.301 42.4019 48.8411 41.9129 49.6781C41.3219 50.6941 41.4299 51.7631 42.1589 52.0671C42.2889 52.1231 42.4329 52.148 42.5809 52.148C43.2579 52.148 44.0639 51.6101 44.5519 50.7751C45.1439 49.7581 45.0359 48.6861 44.3069 48.3801ZM47.2079 50.092C47.14 50.0515 47.0621 50.0307 46.983 50.0321C46.566 50.0321 45.9799 50.5111 45.5529 51.2331C45.0459 52.1041 44.9619 53 45.3629 53.2351C45.4289 53.2751 45.5059 53.291 45.5879 53.291C46.0049 53.291 46.5889 52.817 47.0159 52.092C47.5249 51.224 47.6109 50.327 47.2079 50.092Z"
            fill="#ABD4D1" />
        <path
            d="M39.5448 37.118C39.5232 37.1184 39.5023 37.1261 39.4858 37.14C39.2528 37.424 39.5168 38.478 39.8608 38.645C39.8839 38.6576 39.9095 38.6648 39.9358 38.666C40.1348 38.666 40.1618 38.202 39.9708 37.699C39.9068 37.534 39.7098 37.118 39.5448 37.118ZM39.1368 40.357C38.9628 40.357 38.6598 40.553 38.4028 40.87C38.2778 41.026 37.9608 41.489 38.1608 41.572C38.1747 41.5741 38.1887 41.5751 38.2028 41.575C38.5798 41.575 39.3048 40.861 39.2768 40.492C39.2708 40.4 39.2158 40.357 39.1368 40.357ZM41.4888 40.003C41.3776 39.9962 41.2666 40.0208 41.1688 40.074C40.9248 40.24 41.3388 40.549 41.9328 40.644C42.0098 40.656 42.1408 40.67 42.2688 40.67C42.4748 40.67 42.6778 40.634 42.6598 40.503C42.5618 40.24 41.9238 40.003 41.4888 40.003Z"
            fill="#E3F1EF" />
        <path
            d="M34.9402 36.76C34.7242 36.515 34.1492 35.95 33.8222 35.95C33.7462 35.95 33.6862 35.976 33.6442 36.043C33.4012 36.737 34.6242 38.538 35.3902 38.612C35.4051 38.6136 35.4202 38.6143 35.4352 38.614C35.9592 38.614 35.7082 37.642 34.9402 36.76ZM34.0252 34.629C35.0592 34.583 35.4272 32.414 34.2972 31.29C34.0742 31.068 33.6512 30.791 33.2612 30.791C33.0182 30.791 32.7922 30.898 32.6342 31.189C32.1462 32.379 32.8852 34.632 33.9832 34.632C33.9972 34.632 34.0113 34.631 34.0252 34.629ZM41.2462 44.2C40.9152 44.2 40.4032 44.825 40.1042 45.697C39.9772 46.075 39.7032 47.161 40.1322 47.176C40.8552 47.039 41.8012 45.08 41.4852 44.381C41.4282 44.257 41.3452 44.2 41.2462 44.2ZM37.9372 47.189C37.1082 47.189 35.9802 47.891 35.6892 48.987C35.5612 49.477 35.5672 50.479 36.4052 50.479H36.4332C37.7222 50.305 39.3292 48.497 38.7192 47.555C38.5592 47.305 38.2702 47.189 37.9372 47.189ZM45.2842 35.652C44.5322 35.652 43.6922 35.856 43.4312 36.218C43.1712 36.582 43.6832 36.838 44.4642 36.838C44.7082 36.838 44.9792 36.814 45.2612 36.757C45.6542 36.678 46.7282 36.374 46.5292 35.993C46.3282 35.758 45.8312 35.652 45.2842 35.652ZM51.2402 37.546C50.7482 36.909 49.6572 36.481 48.7752 36.481C48.2272 36.481 47.7592 36.646 47.5642 37.028C47.1472 37.834 48.3962 39.011 49.7452 39.011C49.9352 39.011 50.1282 38.988 50.3182 38.935C50.8142 38.801 51.6912 38.284 51.2402 37.546Z"
            fill="#5D89B5" />
        <path
            d="M43.1091 22.549C43.1791 22.551 43.2521 22.551 43.3201 22.551C45.1371 22.551 46.4881 21.869 45.8431 21.236C45.4911 20.894 44.7301 20.74 43.9021 20.74C42.6551 20.74 41.2581 21.092 40.8961 21.685C40.6851 22.329 42.4671 22.528 43.1091 22.549ZM39.2771 22.398C38.0271 22.398 36.2951 23.482 35.8041 24.653C35.4871 25.726 36.7791 26.081 37.4511 26.081H37.4661C39.5511 26.081 41.2011 23.768 40.2841 22.777C40.0401 22.513 39.6841 22.398 39.2771 22.398ZM46.9071 25.716C47.2161 24.534 45.9921 23.585 44.3581 23.585C43.6409 23.5908 42.9343 23.7587 42.2911 24.076C40.5911 25.056 40.6251 26.343 41.5221 27.049C42.0341 27.456 42.7421 27.638 43.4791 27.638C44.9821 27.639 46.6011 26.879 46.9071 25.716ZM50.2161 25.507C50.9351 25.77 51.6351 25.908 52.1991 25.908C53.1341 25.908 53.6951 25.531 53.3361 24.723C52.7271 23.358 49.8871 21.883 48.1531 21.883C47.5371 21.883 47.0601 22.068 46.8731 22.513C46.6911 23.671 48.7201 24.96 50.2161 25.507ZM21.6091 43.662C21.4151 43.662 21.2711 43.773 21.2081 44.018C20.9071 45.204 22.9131 48.049 24.0721 48.077C24.7361 47.936 24.0161 46.293 23.7121 45.727C23.0451 44.49 22.1401 43.662 21.6091 43.662ZM26.7711 47.26C26.0701 47.26 25.4891 47.525 25.3221 48.06C24.9121 49.384 27.2341 51.021 28.8991 51.021C28.9991 51.021 29.0941 51.014 29.1881 51.002C30.2751 50.739 29.9381 49.444 29.6011 48.861C28.9911 47.795 27.7641 47.26 26.7711 47.26ZM26.9491 46.149C27.7801 46.149 28.2951 45.6 28.4051 44.854C28.6741 43.048 26.6701 40.796 25.0031 40.796C24.8501 40.796 24.7021 40.817 24.5571 40.856C22.9121 41.306 23.1511 44.117 25.4451 45.672C26.0191 46.006 26.5261 46.149 26.9491 46.149ZM21.8011 42.485C22.8921 42.063 22.9941 39.662 22.7211 38.093C22.4551 36.578 21.7881 35.381 21.1181 35.381C20.9021 35.381 20.6851 35.506 20.4811 35.785C19.3141 37.39 19.9481 42.493 21.6851 42.493C21.724 42.4933 21.7627 42.4907 21.8011 42.485ZM54.4891 48.399C54.5591 48.399 54.6281 48.391 54.6991 48.376C56.1311 48.053 56.3341 44.898 55.3161 43.558C55.1031 43.333 54.8741 43.242 54.6481 43.242C54.0631 43.242 53.4981 43.851 53.2551 44.271C52.2541 45.981 53.2581 48.399 54.4891 48.399ZM55.1071 49.348C54.5941 49.348 53.7741 50.47 53.4851 50.937C52.5451 52.461 52.3721 53.986 53.0821 53.986C53.1406 53.9856 53.1988 53.9775 53.2551 53.962C54.4331 53.629 55.8941 50.471 55.3371 49.453C55.3092 49.4193 55.274 49.3924 55.2341 49.3742C55.1943 49.356 55.1509 49.3471 55.1071 49.348ZM51.0101 47.185C50.8031 47.185 50.5911 47.226 50.3811 47.312C48.5301 48.041 47.5711 51.381 48.8431 52.641C49.1201 52.915 49.4561 53.043 49.8081 53.043C51.0041 53.043 52.4161 51.596 52.5711 49.464C52.5731 47.891 51.8461 47.185 51.0101 47.185ZM50.8551 53.975C49.8061 53.975 48.3151 54.821 47.3681 55.613C45.8061 56.92 45.0811 58.557 46.4891 58.707C46.5541 58.713 46.6181 58.717 46.6861 58.717C48.7661 58.717 52.7091 55.633 51.6341 54.215C51.4271 54.046 51.1581 53.975 50.8551 53.975Z"
            fill="#005186" />
        <path
            d="M38.047 27.408C37.9128 27.353 37.769 27.3255 37.624 27.327C36.949 27.327 36.141 27.866 35.653 28.7C35.062 29.718 35.17 30.79 35.9 31.094C36.029 31.149 36.171 31.174 36.319 31.174C36.996 31.174 37.804 30.635 38.292 29.799C38.883 28.782 38.776 27.711 38.047 27.408ZM34.841 26.24C34.7718 26.201 34.6934 26.1813 34.614 26.183C34.199 26.183 33.614 26.659 33.189 27.384C32.68 28.254 32.596 29.148 32.995 29.384C33.0639 29.424 33.1422 29.4451 33.222 29.445C33.639 29.445 34.225 28.965 34.651 28.242C35.158 27.371 35.241 26.476 34.841 26.24ZM32.401 46.274H32.387C31.218 46.274 30.351 46.904 30.453 47.681C30.553 48.465 31.59 49.102 32.768 49.109H32.78C33.952 49.109 34.821 48.481 34.719 47.701C34.616 46.919 33.58 46.279 32.401 46.274ZM32.873 50.209H32.851C31.854 50.209 31.048 50.581 31.043 51.043C31.041 51.512 31.854 51.895 32.859 51.902H32.887C33.881 51.902 34.684 51.532 34.687 51.07C34.692 50.602 33.879 50.217 32.873 50.209ZM50.271 40.226C50.0614 40.2238 49.857 40.2913 49.69 40.418C49.062 40.898 49.029 42.116 49.614 43.138C50.039 43.879 50.672 44.315 51.227 44.315C51.4365 44.3168 51.6408 44.2493 51.808 44.123C52.435 43.644 52.469 42.427 51.884 41.403C51.46 40.662 50.827 40.226 50.271 40.226ZM54.258 39.927C53.84 39.192 53.255 38.706 52.839 38.706C52.7634 38.7044 52.6889 38.723 52.623 38.76C52.214 38.991 52.289 39.888 52.782 40.765C53.204 41.498 53.789 41.985 54.204 41.985C54.284 41.985 54.356 41.967 54.42 41.928C54.828 41.699 54.755 40.803 54.258 39.927Z"
            fill="#016397" />
        <path
            d="M38.271 38.833C38.1597 38.8167 38.0474 38.8084 37.935 38.808C37.73 38.808 37.527 38.841 37.544 38.973C37.643 39.236 38.281 39.474 38.717 39.474C38.8278 39.4803 38.9382 39.4557 39.036 39.403C39.28 39.235 38.864 38.928 38.271 38.833ZM40.345 40.83C40.3207 40.8176 40.2942 40.8105 40.267 40.809C40.069 40.809 40.041 41.275 40.233 41.778C40.297 41.943 40.495 42.358 40.657 42.358C40.6792 42.3579 40.7008 42.3501 40.718 42.336C40.952 42.052 40.688 40.996 40.345 40.83ZM42.043 37.904C42.0291 37.9015 42.0151 37.9002 42.001 37.9C41.623 37.9 40.898 38.614 40.926 38.982C40.932 39.076 40.985 39.119 41.066 39.119C41.241 39.119 41.542 38.923 41.799 38.604C41.927 38.448 42.244 37.986 42.043 37.904Z"
            fill="#AEBFD9" />
        <path d="M71.0201 64.778L71.0181 16.805L79.7881 16.802V17.549L71.7651 17.552L71.7671 64.778H71.0201Z"
            fill="#5BBDB8" />
    </g>
    <defs>
        <clipPath id="clip0_25_1806">
            <rect width="320" height="79.668" fill="white" />
        </clipPath>
    </defs>
</svg>