<svg width="202" height="50" viewBox="0 0 202 50" fill="none" xmlns="http://www.w3.org/2000/svg">
<g clip-path="url(#clip0_25_3397)">
<path d="M0 6.27605C0 2.82422 2.84063 0 6.3125 0H195.688C199.159 0 202 2.82422 202 6.27605V43.724C202 47.1758 199.159 50 195.688 50H6.3125C2.84063 50 0 47.1758 0 43.724V6.27605Z" fill="white"/>
<path d="M5.52466 4.64551H196.458V45.3758H5.52466V4.64551Z" fill="white"/>
<path d="M51.4355 29.3958C51.4355 25.9133 53.2333 23.9118 55.8909 23.9118C57.5498 23.9118 58.3338 24.2325 58.8414 24.584V26.2484H57.95C57.6584 25.0723 57.1818 24.5382 55.8455 24.5382C54.0174 24.5382 52.8641 25.7909 52.8641 29.3645C52.8641 33.0617 54.0622 34.0696 56.0146 34.0696C57.274 34.0696 57.873 33.6115 58.1041 32.4196H58.9178V33.978L58.9638 33.9466C58.426 34.3282 57.5202 34.696 56.0146 34.696C52.8647 34.6972 51.4355 32.6493 51.4355 29.3958ZM65.8924 33.2763L66.138 33.7037C65.4158 34.2541 64.5561 34.6972 63.5114 34.6972C61.3752 34.6972 60.0843 33.2462 60.0843 30.7709C60.0843 28.3107 61.4516 26.8754 63.2955 26.8754C65.1703 26.8754 66.2762 28.1896 66.2762 30.481V30.8469H61.3752C61.4061 33.1383 62.2047 33.8719 63.8794 33.8719C64.5409 33.8726 65.3559 33.6121 65.8924 33.2763ZM61.391 30.1904H65.0017C65.0017 28.2655 64.4948 27.5168 63.2658 27.5168C62.175 27.5174 61.5141 28.1588 61.391 30.1904ZM71.7302 26.8754C71.8685 26.8754 72.0067 26.9055 72.114 26.9369L71.7908 28.3421C71.6993 28.3107 71.5762 28.2963 71.3761 28.2963C70.1168 28.2963 69.625 28.8774 69.625 30.3435V32.9864C69.625 33.8267 69.9015 34.0251 70.9304 34.101V34.529H67.3355V34.101C68.1504 34.0251 68.4111 33.8418 68.4111 32.9864V29.2276C68.4111 28.1281 68.1801 27.9298 67.2894 27.8827V27.5017L69.1175 26.9212H69.3176C69.4249 27.1961 69.5783 27.8381 69.5941 28.6321C70.1477 27.6856 70.8844 26.8754 71.7302 26.8754ZM76.6313 27.8683H75.002V32.5276C75.002 33.7495 75.233 34.0395 76.0776 34.0395C76.3245 34.0395 76.5852 33.9943 76.8774 33.902L76.9841 34.391C76.5088 34.6194 76.0171 34.7424 75.5556 34.7424C74.4029 34.7424 73.7887 34.2234 73.7887 32.7253V27.8683H72.8671V27.4559L73.8961 27.1202C74.0343 26.3871 74.2186 25.5467 74.5412 25.012L75.1402 24.8746C75.0626 25.425 75.0165 26.3256 75.0165 27.1202H76.8295L76.6313 27.8683ZM77.782 34.529V34.101C78.597 34.0251 78.8583 33.8418 78.8583 32.9864V29.2126C78.8583 28.113 78.6279 27.9141 77.7372 27.8683V27.4867L79.8734 26.9218H80.0722V32.9864C80.0722 33.8267 80.2723 34.0251 81.1478 34.101V34.529H77.782ZM79.3652 25.6534C78.8425 25.6534 78.4587 25.2568 78.4587 24.7371C78.4587 24.2181 78.8425 23.8208 79.3652 23.8208C79.8872 23.8208 80.2723 24.2181 80.2723 24.7371C80.2717 25.2562 79.8872 25.6534 79.3652 25.6534ZM84.4038 32.9864C84.4038 33.811 84.573 34.0401 85.4025 34.101V34.529H82.1149V34.101C82.9299 34.0251 83.1906 33.8418 83.1906 32.9864V27.8689H82.2222V27.4565L83.1906 27.1051V26.0664C83.1906 24.4773 84.2353 23.4694 85.9258 23.4694C86.6321 23.4694 87.3234 23.5761 87.7078 23.7141V25.0277H86.7704C86.694 24.5087 86.3557 24.1265 85.7875 24.1265C84.8344 24.1265 84.3893 24.7679 84.3893 26.0513V27.1202H87.8L88.5373 26.9218H88.7367V32.9864C88.7367 33.8267 88.9368 34.0251 89.8124 34.101V34.529H86.5097V34.101C87.3234 34.0395 87.5235 33.8725 87.5235 32.9864V29.2126C87.5235 28.1588 87.3234 27.8683 86.4169 27.8683H84.4051V32.9864H84.4038ZM96.6633 33.2763L96.9095 33.7037C96.1874 34.2541 95.3264 34.6972 94.2816 34.6972C92.1461 34.6972 90.8552 33.2462 90.8552 30.7709C90.8552 28.3107 92.2231 26.8754 94.067 26.8754C95.9406 26.8754 97.0471 28.1896 97.0471 30.481V30.8469H92.1455C92.1758 33.1383 92.9756 33.8719 94.6503 33.8719C95.3112 33.8726 96.1262 33.6121 96.6633 33.2763ZM92.1619 30.1904H95.7726C95.7726 28.2655 95.2664 27.5168 94.0367 27.5168C92.9453 27.5174 92.2844 28.1588 92.1619 30.1904ZM101.118 34.6815C99.598 34.6815 98.184 33.6428 98.184 30.8933C98.184 28.5404 99.3361 26.9369 101.242 26.9369C101.978 26.9369 102.763 27.2576 103.423 27.9605V25.6534C103.423 24.5388 103.146 24.3556 102.255 24.3091V23.8968L104.422 23.4688H104.637V32.4661C104.637 33.5669 104.884 33.764 105.851 33.811V34.1926C105.236 34.3759 104.575 34.5591 103.962 34.728H103.823C103.627 34.3166 103.492 33.8792 103.423 33.4295C102.839 34.1631 101.901 34.6815 101.118 34.6815ZM101.364 33.9171C102.086 33.9171 102.778 33.3824 103.423 32.6493V28.6929C102.932 28.0973 102.163 27.7151 101.472 27.7151C100.242 27.7151 99.5046 28.2957 99.5046 30.7094C99.5046 33.1081 100.089 33.9171 101.364 33.9171ZM112.778 32.8332C112.778 33.7345 113.054 34.0395 114.13 34.0853V34.5284H110.274V34.0853C111.212 34.0094 111.503 33.7194 111.503 32.8784V25.7451C111.503 24.9047 111.212 24.6141 110.274 24.5382V24.0951H114.054C117.003 24.0951 117.925 25.4087 117.925 27.0737C117.925 29.0143 116.712 30.1446 114.453 30.1446H112.779V32.8332H112.778ZM114.085 24.7522H112.779V29.5032H114.362C115.944 29.5032 116.558 28.8467 116.558 27.2425C116.558 25.425 116.066 24.7522 114.085 24.7522ZM123.271 26.8754C123.409 26.8754 123.548 26.9055 123.655 26.9369L123.332 28.3421C123.24 28.3107 123.117 28.2963 122.918 28.2963C121.657 28.2963 121.165 28.8774 121.165 30.3435V32.9864C121.165 33.8267 121.442 34.0251 122.473 34.101V34.529H118.876V34.101C119.69 34.0251 119.952 33.8418 119.952 32.9864V29.2276C119.952 28.1281 119.722 27.9298 118.831 27.8827V27.5017L120.659 26.9212H120.858C120.966 27.1961 121.12 27.8381 121.134 28.6321C121.688 27.6856 122.426 26.8754 123.271 26.8754ZM131.367 34.0395V34.4826C131.137 34.5591 130.753 34.62 130.399 34.62C129.385 34.62 129.17 34.1161 129.062 33.3516C128.755 33.9636 128.002 34.7424 126.896 34.7424C125.483 34.7424 124.515 33.9786 124.515 32.6192C124.515 30.8161 126.097 30.2055 128.447 30.2055C128.632 30.2055 128.879 30.2055 129.078 30.2199V29.5019C129.078 28.1576 128.755 27.562 127.588 27.562C126.236 27.562 125.837 28.2191 125.713 28.9364H124.929V27.6379C125.574 27.2858 126.712 26.8898 127.71 26.8898C129.37 26.8898 130.291 27.6536 130.291 29.4109C130.291 29.9155 130.231 31.1983 130.231 32.5722C130.231 33.7037 130.43 33.9479 131.367 34.0395ZM129.047 30.8626C128.838 30.8432 128.628 30.833 128.418 30.8318C126.605 30.8318 125.821 31.3207 125.821 32.5125C125.821 33.6121 126.283 33.9636 127.234 33.9636C128.003 33.9636 128.633 33.368 129.002 32.7253L129.047 30.8626ZM137.928 28.8467H137.066C136.913 27.9442 136.575 27.5482 135.684 27.5482C134.456 27.5482 133.625 28.3264 133.625 30.6341C133.625 33.1081 134.363 33.9479 135.853 33.9479C136.79 33.9479 137.236 33.6893 137.881 33.1539L138.205 33.4897C137.543 34.2234 136.714 34.6972 135.639 34.6972C133.795 34.6972 132.289 33.4746 132.289 30.9391C132.289 28.3264 133.764 26.9369 135.715 26.9369C136.822 26.9369 137.529 27.2425 137.928 27.4867V28.8467H137.928ZM142.966 27.8683H141.336V32.5276C141.336 33.7495 141.567 34.0395 142.412 34.0395C142.659 34.0395 142.919 33.9943 143.211 33.902L143.318 34.391C142.843 34.6194 142.351 34.7424 141.89 34.7424C140.737 34.7424 140.123 34.2234 140.123 32.7253V27.8683H139.201V27.4559L140.23 27.1202C140.369 26.3871 140.553 25.5467 140.875 25.012L141.475 24.8746C141.397 25.425 141.351 26.3256 141.351 27.1202H143.164L142.966 27.8683ZM144.117 34.529V34.101C144.932 34.0251 145.193 33.8418 145.193 32.9864V29.2126C145.193 28.113 144.962 27.9141 144.071 27.8683V27.4867L146.208 26.9218H146.406V32.9864C146.406 33.8267 146.606 34.0251 147.481 34.101V34.529H144.117ZM145.7 25.6534C145.177 25.6534 144.794 25.2568 144.794 24.7371C144.794 24.2181 145.177 23.8208 145.7 23.8208C146.222 23.8208 146.607 24.2181 146.607 24.7371C146.606 25.2562 146.222 25.6534 145.7 25.6534ZM152.183 27.8683H150.554V32.5276C150.554 33.7495 150.784 34.0395 151.63 34.0395C151.876 34.0395 152.138 33.9943 152.43 33.902L152.537 34.391C152.06 34.6194 151.569 34.7424 151.107 34.7424C149.956 34.7424 149.341 34.2234 149.341 32.7253V27.8683H148.418V27.4559L149.448 27.1202C149.586 26.3871 149.77 25.5467 150.093 25.012L150.692 24.8746C150.616 25.425 150.569 26.3256 150.569 27.1202H152.383L152.183 27.8683ZM153.334 34.529V34.101C154.149 34.0251 154.409 33.8418 154.409 32.9864V29.2126C154.409 28.113 154.179 27.9141 153.288 27.8683V27.4867L155.424 26.9218H155.624V32.9864C155.624 33.8267 155.823 34.0251 156.7 34.101V34.529H153.334ZM154.917 25.6534C154.395 25.6534 154.01 25.2568 154.01 24.7371C154.01 24.2181 154.394 23.8208 154.917 23.8208C155.44 23.8208 155.823 24.2181 155.823 24.7371C155.823 25.2562 155.44 25.6534 154.917 25.6534ZM161.185 34.7123C159.065 34.7123 157.744 33.2914 157.744 30.8017C157.744 28.3572 159.065 26.8917 161.154 26.8917C163.444 26.8917 164.626 28.6026 164.626 30.8789C164.626 33.2763 163.198 34.7123 161.185 34.7123ZM161.154 27.5482C159.541 27.5482 159.064 28.7243 159.064 30.6485C159.064 32.9864 159.649 34.0552 161.215 34.0552C162.599 34.0552 163.305 32.9406 163.305 30.9391C163.305 28.5705 162.553 27.5482 161.154 27.5482ZM172.646 32.9864C172.646 33.8725 172.831 34.0401 173.644 34.101V34.529H170.356V34.101C171.232 34.0251 171.432 33.8261 171.432 33.0931V29.2126C171.432 28.2812 171.018 27.9141 170.218 27.9141C169.266 27.9141 168.651 28.3729 168.006 29.03V33.0931C168.006 33.8267 168.205 34.0251 169.082 34.101V34.529H165.716V34.101C166.531 34.0251 166.792 33.8418 166.792 32.9864V29.2276C166.792 28.1281 166.561 27.9298 165.67 27.8827V27.5017L167.514 26.9212H167.714C167.806 27.1497 167.929 27.7917 167.945 28.3421C168.712 27.5476 169.542 26.9369 170.664 26.9369C171.831 26.9369 172.646 27.6392 172.646 28.9377V32.9864ZM180.496 33.2763L180.743 33.7037C180.021 34.2541 179.16 34.6972 178.115 34.6972C175.979 34.6972 174.688 33.2462 174.688 30.7709C174.688 28.3107 176.056 26.8754 177.9 26.8754C179.774 26.8754 180.88 28.1896 180.88 30.481V30.8469H175.979C176.01 33.1383 176.809 33.8719 178.483 33.8719C179.144 33.8726 179.957 33.6121 180.496 33.2763ZM175.994 30.1904H179.605C179.605 28.2655 179.098 27.5168 177.87 27.5168C176.778 27.5174 176.117 28.1588 175.994 30.1904ZM186.334 26.8754C186.471 26.8754 186.61 26.9055 186.718 26.9369L186.395 28.3421C186.303 28.3107 186.178 28.2963 185.98 28.2963C184.72 28.2963 184.228 28.8774 184.228 30.3435V32.9864C184.228 33.8267 184.505 34.0251 185.535 34.101V34.529H181.938V34.101C182.754 34.0251 183.015 33.8418 183.015 32.9864V29.2276C183.015 28.1281 182.784 27.9298 181.893 27.8827V27.5017L183.722 26.9212H183.921C184.029 27.1961 184.182 27.8381 184.198 28.6321C184.751 27.6856 185.489 26.8754 186.334 26.8754Z" fill="#5BBDB8"/>
<path d="M54.5822 15.8352V16.6185H53.4302V19.8513H52.5401V16.6185H51.3875V15.8352H54.5822ZM56.2089 15.8352V17.3327H57.9373V15.8352H58.8274V19.8513H57.9373V18.1153H56.2089V19.8513H55.3189V15.8352H56.2089ZM62.7127 15.8352V16.6517H60.8587V17.4011H62.6104V18.2176H60.8587V19.0341H62.8162V19.8506H59.9687V15.8346H62.7127V15.8352ZM66.6662 15.8352V19.8513H65.7762V15.8352H66.6662ZM68.9716 15.8352L70.6892 18.6262H70.6999V15.8352H71.5906V19.8513H70.4266L68.6635 16.9925H68.6528V19.8513H67.7627V15.8352H68.9716ZM74.0664 15.7329C74.5688 15.7329 74.9811 15.8729 75.3049 16.1521L74.6938 16.8162C74.6169 16.7228 74.5149 16.6529 74.3997 16.6147C74.2874 16.5735 74.169 16.5517 74.0493 16.5501C73.8996 16.5451 73.7518 16.5844 73.6245 16.663C73.5077 16.7383 73.4503 16.8394 73.4503 16.9636C73.4503 17.0735 73.4951 17.1651 73.5841 17.2385C73.6731 17.3132 73.8132 17.3766 74.0032 17.4287C74.4407 17.5567 74.7311 17.6684 74.8737 17.7632C75.0164 17.858 75.1243 17.9766 75.1995 18.1178C75.2733 18.2603 75.3106 18.431 75.3106 18.6312C75.3106 19.036 75.1685 19.3573 74.8864 19.5958C74.6023 19.8337 74.2254 19.9535 73.7533 19.9535C73.2091 19.9535 72.7565 19.7847 72.3955 19.449L73.0286 18.7561C73.2268 19.0103 73.485 19.137 73.8044 19.137C73.9755 19.137 74.1213 19.0981 74.2406 19.0234C74.3605 18.9475 74.4205 18.8452 74.4205 18.7172C74.4205 18.5044 74.2381 18.3425 73.8732 18.2289C73.4092 18.0889 73.1069 17.9716 72.9661 17.8749C72.8253 17.7783 72.7168 17.664 72.6404 17.5316C72.5646 17.3992 72.5268 17.2348 72.5268 17.0377C72.5268 16.6523 72.6707 16.3385 72.9579 16.0963C73.2439 15.8547 73.6131 15.7329 74.0664 15.7329ZM79.081 15.8352V16.6185H77.9277V19.8513H77.0383V16.6185H75.8856V15.8352H79.081ZM80.6958 15.8352V19.8513H79.8057V15.8352H80.6958ZM84.6152 15.8352V16.6185H83.4625V19.8513H82.5725V16.6185H81.4198V15.8352H84.6152ZM86.2407 15.8352V18.2804C86.2407 18.5295 86.3196 18.7354 86.478 18.8954C86.6352 19.0567 86.829 19.137 87.0569 19.137C87.2885 19.137 87.4811 19.0529 87.6357 18.8841C87.7882 18.72 87.8709 18.5037 87.8668 18.2804V15.8352H88.7568V18.3199C88.7568 18.8113 88.6041 19.2067 88.3004 19.5061C87.9962 19.8048 87.5814 19.9542 87.0569 19.9542C86.5361 19.9542 86.1214 19.8054 85.8133 19.5086C85.5053 19.2117 85.3512 18.8151 85.3512 18.3199V15.8352H86.2407ZM92.6882 15.8352V16.6185H91.5362V19.8513H90.6462V16.6185H89.4935V15.8352H92.6882ZM96.2024 15.8352V16.6517H94.3484V17.4011H96.0995V18.2176H94.3484V19.0341H96.3053V19.8506H93.4584V15.8346H96.2024V15.8352ZM102.023 15.8352V16.6517H100.202V17.4682H101.885V18.286H100.202V19.8513H99.312V15.8352H102.023ZM104.909 15.7329C105.555 15.7329 106.08 15.9262 106.483 16.3116C106.887 16.6975 107.088 17.2084 107.088 17.8429C107.088 18.4755 106.884 18.9845 106.477 19.3724C106.07 19.7596 105.547 19.9542 104.909 19.9542C104.262 19.9542 103.737 19.7584 103.334 19.3693C102.931 18.9795 102.73 18.4718 102.73 17.8429C102.73 17.2153 102.93 16.7063 103.331 16.3172C103.733 15.9281 104.258 15.7329 104.909 15.7329ZM103.653 17.8429C103.653 18.2327 103.771 18.5458 104.005 18.7818C104.238 19.0184 104.541 19.137 104.91 19.137C105.287 19.137 105.588 19.0159 105.818 18.773C106.049 18.5314 106.164 18.2214 106.164 17.8429C106.164 17.4576 106.047 17.1463 105.813 16.9072C105.58 16.6687 105.275 16.5501 104.904 16.5501C104.53 16.5501 104.229 16.6706 104 16.9128C103.769 17.1551 103.653 17.4657 103.653 17.8429ZM109.57 15.8352C110.065 15.8352 110.438 15.94 110.688 16.1496C110.939 16.3599 111.065 16.6611 111.065 17.054C111.065 17.3496 110.988 17.5938 110.834 17.7864C110.68 17.9797 110.466 18.1015 110.192 18.1548L111.219 19.8506H110.152L109.308 18.2452H108.868V19.8506H107.979V15.8346H109.57V15.8352ZM109.422 17.4977C109.685 17.4977 109.87 17.4626 109.979 17.3929C110.087 17.3226 110.141 17.2084 110.141 17.049C110.141 16.739 109.919 16.5839 109.474 16.5839H108.868V17.4977H109.422ZM116.68 15.8352V16.6517H114.859V17.4682H116.543V18.286H114.859V19.8513H113.969V15.8352H116.68ZM118.494 15.8352V18.2804C118.494 18.5295 118.572 18.7354 118.73 18.8954C118.888 19.0567 119.081 19.137 119.309 19.137C119.54 19.137 119.735 19.0529 119.888 18.8841C120.043 18.7159 120.119 18.5145 120.119 18.2804V15.8352H121.009V18.3199C121.009 18.8113 120.857 19.2067 120.552 19.5061C120.248 19.8048 119.833 19.9542 119.308 19.9542C118.788 19.9542 118.373 19.8054 118.064 19.5086C117.756 19.2117 117.603 18.8151 117.603 18.3199V15.8352H118.494ZM123.326 15.8352L125.042 18.6262H125.055V15.8352H125.945V19.8513H124.781L123.018 16.9925H123.005V19.8513H122.116V15.8352H123.326ZM129.014 15.7329C129.28 15.7329 129.536 15.7831 129.782 15.8835C130.027 15.984 130.225 16.1302 130.377 16.3229L129.693 16.8783C129.506 16.6593 129.252 16.5501 128.928 16.5501C128.593 16.5501 128.315 16.6712 128.093 16.9153C127.869 17.1595 127.759 17.4682 127.759 17.8429C127.759 18.2025 127.865 18.5082 128.078 18.7592C128.291 19.0115 128.565 19.137 128.9 19.137C129.258 19.137 129.536 18.9933 129.733 18.7059L130.474 19.255C130.322 19.4737 130.115 19.6488 129.873 19.7628C129.616 19.8902 129.33 19.9535 129.015 19.9535C128.372 19.9535 127.847 19.7577 127.443 19.3686C127.037 18.9789 126.836 18.4711 126.836 17.8423C126.836 17.2222 127.036 16.7157 127.44 16.3229C127.841 15.93 128.367 15.7329 129.014 15.7329ZM134.069 15.8352V16.6185H132.917V19.8513H132.026V16.6185H130.874V15.8352H134.069ZM135.682 15.8352V19.8513H134.792V15.8352H135.682ZM138.74 15.7329C139.387 15.7329 139.912 15.9262 140.315 16.3116C140.719 16.6975 140.921 17.2084 140.921 17.8429C140.921 18.4755 140.718 18.9845 140.31 19.3724C139.902 19.7596 139.379 19.9542 138.74 19.9542C138.094 19.9542 137.569 19.7584 137.167 19.3693C136.763 18.9795 136.561 18.4718 136.561 17.8429C136.561 17.2153 136.761 16.7063 137.164 16.3172C137.564 15.9281 138.09 15.7329 138.74 15.7329ZM137.486 17.8429C137.486 18.2327 137.603 18.5458 137.837 18.7818C138.071 19.0184 138.373 19.137 138.741 19.137C139.119 19.137 139.421 19.0159 139.651 18.773C139.881 18.5314 139.996 18.2214 139.996 17.8429C139.996 17.4576 139.879 17.1463 139.645 16.9072C139.411 16.6687 139.108 16.5501 138.735 16.5501C138.363 16.5501 138.062 16.6706 137.831 16.9128C137.601 17.1551 137.486 17.4657 137.486 17.8429ZM143.02 15.8352L144.737 18.6262H144.749V15.8352H145.639V19.8513H144.475L142.712 16.9925H142.7V19.8513H141.811V15.8352H143.02ZM148.811 15.8352L150.568 19.8513H149.563L149.215 19.0008H147.646L147.31 19.8513H146.328L148.074 15.8352H148.811ZM147.926 18.2521H148.913L148.417 17.0032L147.926 18.2521ZM152.183 15.8352V19.0347H153.831V19.8513H151.293V15.8352H152.183ZM157.929 15.8352L158.858 18.4561H158.87L159.805 15.8352H161.146V19.8513H160.256V16.7716H160.245L159.183 19.8513H158.505L157.484 16.7716H157.472V19.8513H156.582V15.8352H157.929ZM165.031 15.8352V16.6517H163.177V17.4011H164.928V18.2176H163.177V19.0341H165.135V19.8506H162.287V15.8346H165.031V15.8352ZM167.502 15.8352C168.239 15.8352 168.817 16.0116 169.233 16.3624C169.649 16.7145 169.858 17.2097 169.858 17.8492C169.858 18.2389 169.762 18.5854 169.571 18.8898C169.376 19.1964 169.097 19.442 168.768 19.5983C168.426 19.7665 168.04 19.8506 167.61 19.8506H166.133V15.8346H167.502V15.8352ZM167.514 19.0347C167.977 19.0347 168.33 18.9299 168.573 18.7203C168.813 18.5101 168.933 18.2088 168.933 17.8159C168.933 17.4607 168.811 17.177 168.563 16.9674C168.315 16.7578 167.984 16.653 167.569 16.653H167.023V19.0354H167.514V19.0347ZM171.626 15.8352V19.8513H170.736V15.8352H171.626ZM174.684 15.7329C174.951 15.7329 175.207 15.7831 175.452 15.8835C175.698 15.984 175.896 16.1302 176.049 16.3229L175.364 16.8783C175.178 16.6593 174.923 16.5501 174.6 16.5501C174.442 16.5464 174.285 16.5773 174.141 16.6404C173.996 16.7035 173.868 16.7973 173.763 16.9153C173.541 17.1595 173.43 17.4682 173.43 17.8429C173.43 18.2025 173.537 18.5082 173.75 18.7592C173.963 19.0115 174.236 19.137 174.572 19.137C174.929 19.137 175.207 18.9933 175.404 18.7059L176.146 19.255C175.993 19.4742 175.785 19.6494 175.543 19.7628C175.276 19.8926 174.982 19.958 174.685 19.9535C174.043 19.9535 173.519 19.7577 173.114 19.3686C172.709 18.9789 172.506 18.4711 172.506 17.8423C172.506 17.2222 172.709 16.7157 173.111 16.3229C173.513 15.93 174.039 15.7329 174.684 15.7329ZM177.793 15.8352V19.8513H176.903V15.8352H177.793ZM180.099 15.8352L181.817 18.6262H181.828V15.8352H182.718V19.8513H181.554L179.791 16.9925H179.78V19.8513H178.89V15.8352H180.099ZM186.603 15.8352V16.6517H184.749V17.4011H186.5V18.2176H184.749V19.0341H186.705V19.8506H183.859V15.8346H186.603V15.8352Z" fill="#475764"/>
<path d="M5.31323 4.42139V45.5784H196.687V4.42139H5.31323ZM196.221 45.1197H5.78036V4.87954H196.221V45.1197Z" fill="white"/>
<path d="M25.296 20.2709C24.839 20.3562 24.2412 21.587 24.4419 22.025C24.4773 22.1035 24.5297 22.1386 24.5928 22.1386C24.8018 22.1386 25.1243 21.7476 25.3137 21.1997C25.3945 20.9619 25.5681 20.2815 25.296 20.2709ZM27.6487 18.1973H27.631C26.818 18.3077 25.8029 19.4424 26.1886 20.033C26.2896 20.1905 26.4708 20.2633 26.6823 20.2633C27.2049 20.2633 27.9157 19.8221 28.1 19.1343C28.1821 18.8268 28.1777 18.1973 27.6487 18.1973ZM22.5615 26.7603C22.4055 26.7603 22.2345 26.776 22.0577 26.8105C21.809 26.8601 21.1304 27.0509 21.2567 27.2906C21.3842 27.4362 21.6992 27.5053 22.0426 27.5053C22.5192 27.5053 23.0481 27.376 23.2123 27.1488C23.3764 26.9216 23.0538 26.7603 22.5615 26.7603ZM19.2272 25.3953C19.1072 25.3953 18.9848 25.4097 18.8649 25.4436C18.5518 25.5271 17.9969 25.8515 18.2841 26.3172C18.594 26.7145 19.2815 26.9837 19.8395 26.9837C20.1854 26.9837 20.4796 26.8814 20.6039 26.6411C20.8665 26.1346 20.0794 25.3953 19.2272 25.3953ZM29.2792 27.3164C29.3013 27.3172 29.3233 27.3123 29.3429 27.3021C29.3626 27.2918 29.3791 27.2766 29.3909 27.258C29.5431 26.8231 28.7711 25.6915 28.2894 25.645C28.2793 25.6438 28.2686 25.6438 28.2597 25.6438C27.9296 25.6438 28.0887 26.2545 28.5722 26.8086C28.7086 26.9624 29.0722 27.3164 29.2792 27.3164ZM29.1763 28.1448L29.1504 28.1454C28.4977 28.1749 28.2648 29.5362 28.9775 30.2404C29.1195 30.381 29.3878 30.5542 29.6321 30.5542C29.7855 30.5542 29.9281 30.4876 30.0285 30.3044C30.3372 29.5594 29.8694 28.1448 29.1763 28.1448Z" fill="#C6E1DE"/>
<path d="M36.988 22.4769C37.1105 22.4769 37.2014 22.4066 37.2418 22.2529C37.4312 21.5085 36.1649 19.7236 35.4345 19.7067C35.0154 19.7939 35.4686 20.8251 35.6605 21.179C36.0828 21.9566 36.6535 22.4769 36.988 22.4769ZM34.6436 19.7167C34.9043 18.8858 33.4372 17.8584 32.385 17.8584C32.3231 17.8584 32.2631 17.8628 32.2031 17.8697C31.517 18.0354 31.7303 18.8481 31.9431 19.2146C32.3269 19.8837 33.1027 20.2207 33.7295 20.2207C34.1714 20.2194 34.5394 20.0525 34.6436 19.7167ZM34.5665 21.2148C34.2036 21.0058 33.8848 20.9167 33.6178 20.9167C33.0932 20.9167 32.7669 21.2594 32.6993 21.7288C32.5282 22.8604 33.7933 24.2744 34.8462 24.2744C34.9415 24.2744 35.0362 24.2624 35.1271 24.2373C36.1655 23.9549 36.0146 22.1895 34.5665 21.2148ZM36.94 23.21C36.9154 23.21 36.8908 23.2112 36.8668 23.2137C36.1775 23.4786 36.1131 24.9861 36.2861 25.9714C36.4546 26.9235 36.875 27.6735 37.298 27.6735C37.4356 27.6735 37.5713 27.5963 37.6994 27.4206C38.4355 26.4133 38.0365 23.21 36.94 23.21ZM15.8424 18.9084C16.1675 18.9084 16.6839 18.2029 16.8676 17.9111C17.459 16.9553 17.5689 15.9975 17.1213 15.9975C17.0844 15.9979 17.0477 16.0032 17.0121 16.0132C16.2672 16.2222 15.3462 18.2048 15.6966 18.8437C15.7147 18.8644 15.7371 18.8809 15.7623 18.8921C15.7875 18.9032 15.8148 18.9088 15.8424 18.9084ZM16.2332 19.504C16.189 19.504 16.1448 19.5083 16.1006 19.5184C15.1973 19.7217 15.0679 21.7018 15.7111 22.5416C15.8468 22.684 15.9908 22.7399 16.1328 22.7399C16.5021 22.7399 16.8587 22.3589 17.0127 22.0941C17.6434 21.0202 17.0083 19.504 16.2332 19.504ZM18.4286 20.2659C18.558 20.2659 18.6925 20.2395 18.8263 20.1855C19.9935 19.7286 20.6014 17.6331 19.7953 16.841C19.7159 16.7604 19.621 16.6966 19.5162 16.6533C19.4114 16.6101 19.299 16.5883 19.1855 16.5894C18.4318 16.5894 17.5398 17.4975 17.4426 18.8349C17.442 19.8228 17.9009 20.2659 18.4286 20.2659ZM18.5271 16.0038C19.1893 16.0038 20.1311 15.4728 20.7264 14.9764C21.7124 14.1555 22.1713 13.1287 21.2825 13.0346C21.2412 13.0303 21.1997 13.0282 21.1582 13.0283C19.8458 13.0283 17.3561 14.9645 18.0354 15.8538C18.1654 15.9599 18.3346 16.0038 18.5271 16.0038ZM23.4155 35.7282C23.3707 35.7263 23.3259 35.7263 23.283 35.7263C22.1347 35.7263 21.2825 36.1549 21.6909 36.5522C21.9125 36.7662 22.3923 36.8622 22.9156 36.8622C23.7027 36.8622 24.5846 36.6426 24.8131 36.2692C24.9457 35.8643 23.8208 35.7395 23.4155 35.7282ZM26.9871 33.5108H26.9777C25.6615 33.5108 24.6193 34.9612 25.1988 35.5838C25.3535 35.7514 25.5782 35.8229 25.8357 35.8229C26.6242 35.8229 27.7175 35.142 28.0287 34.4071C28.2275 33.7336 27.412 33.5108 26.9871 33.5108ZM23.9331 34.7679C25.0069 34.1541 24.9848 33.3458 24.4192 32.9021C24.0941 32.6466 23.6472 32.5324 23.1832 32.5324C22.2345 32.5324 21.2131 33.0081 21.0199 33.7386C20.8242 34.4805 21.5969 35.0761 22.6277 35.0761C23.0807 35.0732 23.5272 34.9678 23.9331 34.7679ZM18.9292 33.8711C18.4754 33.706 18.0341 33.6194 17.6781 33.6194C17.0872 33.6194 16.7337 33.8579 16.9604 34.3644C17.3442 35.2211 19.135 36.1455 20.2309 36.1455C20.6203 36.1455 20.9215 36.0294 21.0401 35.7495C21.1556 35.0234 19.8755 34.215 18.9292 33.8711Z" fill="#35ABA4"/>
<path d="M29.9446 19.0577H29.9377C29.196 19.0577 28.6487 19.4518 28.7124 19.9426C28.7781 20.4334 29.4314 20.8338 30.1769 20.8363H30.1839C30.9237 20.8363 31.4703 20.4428 31.4066 19.9532C31.3422 19.4612 30.6882 19.062 29.9446 19.0577ZM29.8777 18.3685H29.891C30.5222 18.3685 31.0304 18.1345 31.0329 17.8445C31.0348 17.5508 30.5222 17.3104 29.8865 17.3066H29.8682C29.2408 17.3066 28.7345 17.5389 28.7326 17.8282C28.7288 18.1213 29.2439 18.3635 29.8777 18.3685ZM18.2917 22.0664C18.1596 22.0651 18.0309 22.1075 17.9256 22.1869C17.5292 22.4875 17.5077 23.2513 17.8757 23.894C18.144 24.3597 18.5442 24.6333 18.8958 24.6333C19.0284 24.6333 19.1534 24.595 19.2626 24.5115C19.6584 24.2109 19.6786 23.4478 19.3099 22.8051C19.0417 22.3394 18.6421 22.0664 18.2917 22.0664ZM16.4125 23.5293C16.3645 23.5284 16.3171 23.5405 16.2755 23.5645C16.0192 23.7082 16.0653 24.2712 16.3791 24.8203C16.6423 25.2816 17.0122 25.5879 17.2742 25.5879C17.3247 25.5879 17.3707 25.5766 17.4118 25.5527C17.6693 25.4084 17.622 24.8461 17.3089 24.2944C17.0444 23.8344 16.6757 23.5293 16.4125 23.5293ZM27.9688 30.3633C27.8844 30.3296 27.794 30.3128 27.703 30.3137C27.2763 30.3137 26.7663 30.6527 26.4576 31.178C26.0845 31.8156 26.1527 32.4865 26.6129 32.6773C26.6949 32.7125 26.7858 32.7281 26.8793 32.7281C27.3066 32.7281 27.8154 32.3905 28.1235 31.8664C28.4972 31.2282 28.429 30.5554 27.9688 30.3633ZM29.8001 31.4378C29.7572 31.4123 29.708 31.3993 29.658 31.4001C29.3948 31.4001 29.0249 31.7008 28.7553 32.1539C28.4353 32.7005 28.3823 33.2629 28.6354 33.4103C28.6771 33.4354 28.7257 33.4455 28.7774 33.4455C29.0407 33.4455 29.4093 33.148 29.6789 32.693C30.0002 32.1482 30.0545 31.5853 29.8001 31.4378Z" fill="#ABD4D1"/>
<path d="M24.9628 23.2954C24.9491 23.2956 24.936 23.3005 24.9255 23.3092C24.7784 23.4875 24.9451 24.149 25.1622 24.2538C25.1768 24.2616 25.193 24.2661 25.2096 24.2669C25.3352 24.2669 25.3522 23.9757 25.2317 23.66C25.1913 23.5565 25.0669 23.2954 24.9628 23.2954ZM24.7052 25.3282C24.5954 25.3282 24.4041 25.4512 24.2419 25.6502C24.163 25.7481 23.9629 26.0387 24.0891 26.0908C24.0979 26.092 24.1067 26.0927 24.1156 26.0926C24.3536 26.0926 24.8113 25.6445 24.7936 25.4129C24.7898 25.3552 24.7551 25.3282 24.7052 25.3282ZM26.1899 25.106C26.1197 25.1017 26.0497 25.1172 25.9879 25.1506C25.8339 25.2548 26.0952 25.4487 26.4702 25.5083C26.5188 25.5159 26.6015 25.5247 26.6823 25.5247C26.8123 25.5247 26.9405 25.5021 26.9291 25.4199C26.8672 25.2548 26.4645 25.106 26.1899 25.106Z" fill="#E3F1EF"/>
<path d="M22.0558 23.0709C21.9195 22.9171 21.5565 22.5625 21.3501 22.5625C21.3021 22.5625 21.2642 22.5788 21.2377 22.6209C21.0843 23.0564 21.8563 24.1868 22.3399 24.2332C22.3493 24.2342 22.3588 24.2346 22.3683 24.2345C22.6991 24.2345 22.5406 23.6244 22.0558 23.0709ZM21.4782 21.7335C22.1309 21.7046 22.3632 20.3433 21.6499 19.6379C21.5091 19.4986 21.2421 19.3247 20.9959 19.3247C20.8425 19.3247 20.6999 19.3919 20.6001 19.5745C20.2921 20.3213 20.7586 21.7353 21.4517 21.7353C21.4606 21.7353 21.4694 21.7347 21.4782 21.7335ZM26.0365 27.7403C25.8275 27.7403 25.5043 28.1325 25.3156 28.6798C25.2354 28.917 25.0625 29.5986 25.3333 29.608C25.7897 29.522 26.3868 28.2925 26.1873 27.8539C26.1514 27.776 26.099 27.7403 26.0365 27.7403ZM23.9477 29.6162C23.4244 29.6162 22.7123 30.0567 22.5286 30.7446C22.4478 31.0521 22.4516 31.681 22.9806 31.681H22.9983C23.8119 31.5718 24.8264 30.4371 24.4413 29.8459C24.3403 29.689 24.1579 29.6162 23.9477 29.6162ZM28.5855 22.3755C28.1108 22.3755 27.5805 22.5035 27.4158 22.7307C27.2516 22.9592 27.5748 23.1198 28.0678 23.1198C28.2219 23.1198 28.3929 23.1048 28.5709 23.069C28.819 23.0194 29.497 22.8286 29.3714 22.5895C29.2445 22.442 28.9308 22.3755 28.5855 22.3755ZM32.3452 23.5642C32.0346 23.1644 31.3459 22.8958 30.7892 22.8958C30.4432 22.8958 30.1478 22.9993 30.0247 23.2391C29.7615 23.7449 30.5499 24.4836 31.4015 24.4836C31.5214 24.4836 31.6432 24.4692 31.7632 24.4359C32.0763 24.3518 32.6299 24.0273 32.3452 23.5642Z" fill="#5D89B5"/>
<path d="M27.2125 14.1519C27.2567 14.1532 27.3028 14.1532 27.3457 14.1532C28.4927 14.1532 29.3455 13.7252 28.9383 13.3279C28.7161 13.1133 28.2357 13.0166 27.7131 13.0166C26.9259 13.0166 26.044 13.2375 25.8155 13.6097C25.6823 14.0139 26.8072 14.1388 27.2125 14.1519ZM24.7935 14.0572C24.0045 14.0572 22.9112 14.7375 22.6012 15.4724C22.4011 16.1458 23.2167 16.3686 23.6409 16.3686H23.6503C24.9665 16.3686 26.0081 14.917 25.4292 14.295C25.2752 14.1293 25.0505 14.0572 24.7935 14.0572ZM29.61 16.1396C29.805 15.3977 29.0324 14.8021 28.0009 14.8021C27.5482 14.8058 27.1022 14.9112 26.6961 15.1103C25.623 15.7253 25.6445 16.5331 26.2107 16.9762C26.5339 17.2316 26.9808 17.3458 27.4461 17.3458C28.3948 17.3464 29.4168 16.8695 29.61 16.1396ZM31.6988 16.0084C32.1527 16.1735 32.5945 16.2601 32.9506 16.2601C33.5408 16.2601 33.8949 16.0235 33.6683 15.5164C33.2839 14.6597 31.4911 13.734 30.3965 13.734C30.0077 13.734 29.7066 13.8501 29.5885 14.1293C29.4736 14.8561 30.7544 15.6651 31.6988 16.0084ZM13.6406 27.4026C13.5182 27.4026 13.4273 27.4722 13.3875 27.626C13.1975 28.3703 14.4638 30.1559 15.1954 30.1734C15.6145 30.0849 15.16 29.0538 14.9681 28.6986C14.5471 27.9222 13.9758 27.4026 13.6406 27.4026ZM16.8991 29.6607C16.4566 29.6607 16.0899 29.827 15.9844 30.1628C15.7256 30.9937 17.1914 32.0211 18.2424 32.0211C18.3056 32.0211 18.3655 32.0167 18.4249 32.0092C19.111 31.8441 18.8983 31.0314 18.6856 30.6655C18.3005 29.9964 17.526 29.6607 16.8991 29.6607ZM17.0115 28.9634C17.5361 28.9634 17.8612 28.6189 17.9306 28.1507C18.1004 27.0172 16.8354 25.6038 15.7831 25.6038C15.6865 25.6038 15.5931 25.617 15.5015 25.6415C14.4631 25.9239 14.614 27.6881 16.0621 28.664C16.4244 28.8737 16.7445 28.9634 17.0115 28.9634ZM13.7618 26.6639C14.4505 26.399 14.5149 24.8921 14.3426 23.9074C14.1747 22.9566 13.7536 22.2054 13.3307 22.2054C13.1943 22.2054 13.0573 22.2838 12.9286 22.4589C12.1919 23.4662 12.5921 26.6689 13.6886 26.6689C13.7131 26.6691 13.7376 26.6674 13.7618 26.6639ZM34.3961 30.3755C34.4403 30.3755 34.4839 30.3705 34.5287 30.3611C35.4326 30.1584 35.5608 28.1783 34.9182 27.3373C34.7837 27.1961 34.6391 27.139 34.4965 27.139C34.1272 27.139 33.7705 27.5212 33.6172 27.7848C32.9853 28.858 33.619 30.3755 34.3961 30.3755ZM34.7862 30.9711C34.4624 30.9711 33.9448 31.6753 33.7623 31.9684C33.169 32.9248 33.0598 33.8819 33.5079 33.8819C33.5449 33.8817 33.5816 33.8766 33.6172 33.8669C34.3608 33.6579 35.283 31.6759 34.9314 31.037C34.9138 31.0159 34.8915 30.999 34.8664 30.9876C34.8413 30.9762 34.8139 30.9705 34.7862 30.9711ZM32.2 29.6136C32.0693 29.6136 31.9355 29.6393 31.8029 29.6933C30.6345 30.1508 30.0291 32.247 30.8321 33.0378C31.0069 33.2098 31.219 33.2901 31.4412 33.2901C32.1962 33.2901 33.0875 32.382 33.1854 31.0439C33.1866 30.0567 32.7277 29.6136 32.2 29.6136ZM32.1022 33.875C31.44 33.875 30.4988 34.406 29.901 34.9031C28.915 35.7233 28.4573 36.7507 29.3461 36.8449C29.3871 36.8486 29.4275 36.8511 29.4705 36.8511C30.7835 36.8511 33.2725 34.9156 32.5939 34.0257C32.4632 33.9196 32.2934 33.875 32.1022 33.875Z" fill="#005186"/>
<path d="M24.0171 17.2015C23.9324 17.167 23.8416 17.1497 23.7501 17.1507C23.324 17.1507 22.814 17.4889 22.5059 18.0124C22.1328 18.6513 22.201 19.3241 22.6618 19.5148C22.7433 19.5494 22.8329 19.5651 22.9263 19.5651C23.3537 19.5651 23.8637 19.2268 24.1718 18.7021C24.5448 18.0638 24.4773 17.3917 24.0171 17.2015ZM21.9933 16.4685C21.9497 16.444 21.9002 16.4316 21.85 16.4327C21.5881 16.4327 21.2188 16.7314 20.9505 17.1864C20.6292 17.7324 20.5762 18.2935 20.828 18.4416C20.8716 18.4668 20.921 18.48 20.9713 18.4799C21.2346 18.4799 21.6045 18.1787 21.8734 17.7249C22.1934 17.1783 22.2458 16.6166 21.9933 16.4685ZM20.4531 29.0419H20.4442C19.7063 29.0419 19.159 29.4373 19.2234 29.9249C19.2865 30.417 19.9411 30.8168 20.6848 30.8211H20.6923C21.4322 30.8211 21.9807 30.427 21.9163 29.9375C21.8513 29.4467 21.1973 29.045 20.4531 29.0419ZM20.751 31.5115H20.7371C20.1078 31.5115 19.599 31.745 19.5958 32.0349C19.5946 32.3293 20.1078 32.5697 20.7422 32.574H20.7599C21.3873 32.574 21.8942 32.3418 21.8961 32.0519C21.8993 31.7582 21.3861 31.5165 20.751 31.5115ZM31.7335 25.2461C31.6012 25.2447 31.4722 25.2871 31.3668 25.3666C30.9703 25.6679 30.9495 26.4323 31.3188 27.0737C31.5871 27.5388 31.9867 27.8124 32.337 27.8124C32.4693 27.8136 32.5982 27.7712 32.7038 27.6919C33.0995 27.3913 33.121 26.6275 32.7517 25.9848C32.4841 25.5198 32.0845 25.2461 31.7335 25.2461ZM34.2503 25.0585C33.9865 24.5972 33.6172 24.2922 33.3546 24.2922C33.3069 24.2912 33.2598 24.3029 33.2182 24.3261C32.96 24.471 33.0074 25.034 33.3186 25.5844C33.585 26.0444 33.9543 26.3501 34.2162 26.3501C34.2667 26.3501 34.3122 26.3388 34.3526 26.3143C34.6101 26.1706 34.564 25.6083 34.2503 25.0585Z" fill="#016397"/>
<path d="M24.1585 24.3717C24.0883 24.3615 24.0174 24.3562 23.9464 24.356C23.817 24.356 23.6889 24.3767 23.6996 24.4596C23.7621 24.6246 24.1648 24.774 24.4401 24.774C24.51 24.7779 24.5797 24.7625 24.6414 24.7294C24.7955 24.624 24.5329 24.4313 24.1585 24.3717ZM25.4677 25.625C25.4524 25.6172 25.4357 25.6127 25.4185 25.6118C25.2935 25.6118 25.2758 25.9043 25.397 26.22C25.4374 26.3235 25.5624 26.584 25.6647 26.584C25.6787 26.5839 25.6923 26.579 25.7032 26.5702C25.8509 26.3919 25.6843 25.7292 25.4677 25.625ZM26.5396 23.7886C26.5308 23.7871 26.522 23.7862 26.5131 23.7861C26.2745 23.7861 25.8168 24.2342 25.8345 24.4652C25.8383 24.5242 25.8717 24.5512 25.9229 24.5512C26.0333 24.5512 26.2233 24.4282 26.3856 24.228C26.4664 24.1301 26.6665 23.8401 26.5396 23.7886Z" fill="#AEBFD9"/>
<path d="M44.8313 40.6549L44.8301 10.5468L50.3661 10.5449V11.0137L45.3016 11.0156L45.3029 40.6549H44.8313Z" fill="#5BBDB8"/>
</g>
<defs>
<clipPath id="clip0_25_3397">
<rect width="202" height="50" fill="white"/>
</clipPath>
</defs>
</svg>
