<svg width="77" height="112" viewBox="0 0 77 112" fill="none" xmlns="http://www.w3.org/2000/svg">
<g clip-path="url(#clip0_10_5266)">
<path d="M64.1667 49.0002C62.2534 49.0002 60.6667 50.5868 60.6667 52.5002H53.48C52.78 46.1068 50.26 40.2268 46.3867 35.4668L51.4734 30.3802L51.52 30.4268C52.8734 31.7802 55.1134 31.7802 56.4667 30.4268C57.82 29.0735 57.82 26.8335 56.4667 25.4802L51.52 20.5335C50.1667 19.1802 47.9267 19.1802 46.5734 20.5335C45.22 21.8868 45.22 24.0802 46.5267 25.4335L41.44 30.5202C36.68 26.6935 30.8467 24.1735 24.4534 23.4735V16.3335H24.5C26.4134 16.3335 28 14.7468 28 12.8335C28 10.9202 26.4134 9.3335 24.5 9.3335H17.5C15.5867 9.3335 14 10.9202 14 12.8335C14 14.7468 15.54 16.2868 17.4534 16.3335V23.5668C11.06 24.2202 5.22671 26.7868 0.466705 30.6135L-4.61996 25.5268L-4.57329 25.4802C-3.21996 24.1268 -3.21996 21.8868 -4.57329 20.5335C-5.92663 19.1802 -8.16663 19.1802 -9.51996 20.5335L-14.4666 25.4802C-15.82 26.8335 -15.82 29.0735 -14.4666 30.4268C-13.1133 31.7802 -10.92 31.7802 -9.56663 30.4735L-4.47996 35.5602C-8.30663 40.3202 -10.8266 46.1068 -11.48 52.5002H-18.6666C-18.6666 50.5868 -20.2533 49.0002 -22.1666 49.0002C-24.08 49.0002 -25.6666 50.5868 -25.6666 52.5002V59.5002C-25.6666 61.4135 -24.08 63.0002 -22.1666 63.0002C-20.2533 63.0002 -18.6666 61.4135 -18.6666 59.5002H-11.48C-10.78 65.8935 -8.25996 71.6802 -4.47996 76.4402L-9.56663 81.5268C-10.92 80.1735 -13.1133 80.2202 -14.4666 81.5735C-15.82 82.9268 -15.82 85.1668 -14.4666 86.5202L-9.51996 91.4668C-8.16663 92.8202 -5.92663 92.8202 -4.57329 91.4668C-3.21996 90.1135 -3.21996 87.8735 -4.57329 86.5202L-4.61996 86.4735L0.466705 81.3868C5.22671 85.2135 11.0134 87.7335 17.4067 88.4335V95.6668C15.4934 95.7135 13.9534 97.2535 13.9534 99.1668C13.9534 101.08 15.54 102.667 17.4534 102.667H24.4534C26.3667 102.667 27.9534 101.08 27.9534 99.1668C27.9534 97.2535 26.3667 95.6668 24.4534 95.6668H24.4067V88.4802C30.8 87.8268 36.6334 85.2602 41.3934 81.4335L46.48 86.5202C45.1267 87.8735 45.1734 90.0668 46.5267 91.4202C47.88 92.7735 50.12 92.7735 51.4734 91.4202L56.42 86.4735C57.7734 85.1202 57.7734 82.8802 56.42 81.5268C55.0667 80.1735 52.8267 80.1735 51.4734 81.5268L51.4267 81.5735L46.34 76.4868C50.1667 71.7268 52.7334 65.8935 53.4334 59.4535H60.62C60.62 61.3668 62.2067 62.9535 64.12 62.9535C66.0334 62.9535 67.62 61.3668 67.62 59.4535V52.4535C67.6667 50.5868 66.08 49.0002 64.1667 49.0002ZM29.1667 37.3335C31.7334 37.3335 33.8334 39.4335 33.8334 42.0002C33.8334 44.5668 31.7334 46.6668 29.1667 46.6668C26.6 46.6668 24.5 44.5668 24.5 42.0002C24.5 39.4335 26.6 37.3335 29.1667 37.3335ZM21 60.6668C18.4334 60.6668 16.3334 58.5668 16.3334 56.0002C16.3334 53.4335 18.4334 51.3335 21 51.3335C23.5667 51.3335 25.6667 53.4335 25.6667 56.0002C25.6667 58.5668 23.5667 60.6668 21 60.6668ZM12.8334 37.3335C15.4 37.3335 17.5 39.4335 17.5 42.0002C17.5 44.5668 15.4 46.6668 12.8334 46.6668C10.2667 46.6668 8.16671 44.5668 8.16671 42.0002C8.16671 39.4335 10.2667 37.3335 12.8334 37.3335ZM4.66671 60.6668C2.10004 60.6668 4.00543e-05 58.5668 4.00543e-05 56.0002C4.00543e-05 53.4335 2.10004 51.3335 4.66671 51.3335C7.23337 51.3335 9.33337 53.4335 9.33337 56.0002C9.33337 58.5668 7.23337 60.6668 4.66671 60.6668ZM12.8334 74.6668C10.2667 74.6668 8.16671 72.5668 8.16671 70.0002C8.16671 67.4335 10.2667 65.3335 12.8334 65.3335C15.4 65.3335 17.5 67.4335 17.5 70.0002C17.5 72.5668 15.4 74.6668 12.8334 74.6668ZM29.1667 74.6668C26.6 74.6668 24.5 72.5668 24.5 70.0002C24.5 67.4335 26.6 65.3335 29.1667 65.3335C31.7334 65.3335 33.8334 67.4335 33.8334 70.0002C33.8334 72.5668 31.7334 74.6668 29.1667 74.6668ZM32.6667 56.0002C32.6667 53.4335 34.7667 51.3335 37.3334 51.3335C39.9 51.3335 42 53.4335 42 56.0002C42 58.5668 39.9 60.6668 37.3334 60.6668C34.7667 60.6668 32.6667 58.5668 32.6667 56.0002Z" fill="#4D5628"/>
</g>
<defs>
<clipPath id="clip0_10_5266">
<rect width="112" height="112" fill="white" transform="translate(-35)"/>
</clipPath>
</defs>
</svg>
