<svg width="112" height="112" viewBox="0 0 112 112" fill="none" xmlns="http://www.w3.org/2000/svg">
<g clip-path="url(#clip0_43_518)">
<path d="M99.1666 49C97.2532 49 95.6666 50.5866 95.6666 52.5H88.4799C87.7799 46.1066 85.2599 40.2266 81.3866 35.4666L86.4733 30.38L86.5199 30.4266C87.8733 31.78 90.1133 31.78 91.4666 30.4266C92.8199 29.0733 92.8199 26.8333 91.4666 25.48L86.5199 20.5333C85.1666 19.18 82.9266 19.18 81.5732 20.5333C80.2199 21.8866 80.2199 24.08 81.5266 25.4333L76.4399 30.52C71.6799 26.6933 65.8466 24.1733 59.4532 23.4733V16.3333H59.4999C61.4133 16.3333 62.9999 14.7466 62.9999 12.8333C62.9999 10.92 61.4133 9.33331 59.4999 9.33331H52.4999C50.5866 9.33331 48.9999 10.92 48.9999 12.8333C48.9999 14.7466 50.5399 16.2866 52.4532 16.3333V23.5666C46.0599 24.22 40.2266 26.7866 35.4666 30.6133L30.3799 25.5266L30.4266 25.48C31.7799 24.1266 31.7799 21.8866 30.4266 20.5333C29.0733 19.18 26.8333 19.18 25.4799 20.5333L20.5333 25.48C19.1799 26.8333 19.1799 29.0733 20.5333 30.4266C21.8866 31.78 24.0799 31.78 25.4333 30.4733L30.5199 35.56C26.6933 40.32 24.1733 46.1066 23.5199 52.5H16.3333C16.3333 50.5866 14.7466 49 12.8333 49C10.9199 49 9.33325 50.5866 9.33325 52.5V59.5C9.33325 61.4133 10.9199 63 12.8333 63C14.7466 63 16.3333 61.4133 16.3333 59.5H23.5199C24.2199 65.8933 26.7399 71.68 30.5199 76.44L25.4333 81.5266C24.0799 80.1733 21.8866 80.22 20.5333 81.5733C19.1799 82.9266 19.1799 85.1666 20.5333 86.52L25.4799 91.4666C26.8333 92.82 29.0733 92.82 30.4266 91.4666C31.7799 90.1133 31.7799 87.8733 30.4266 86.52L30.3799 86.4733L35.4666 81.3866C40.2266 85.2133 46.0132 87.7333 52.4066 88.4333V95.6666C50.4932 95.7133 48.9532 97.2533 48.9532 99.1666C48.9532 101.08 50.5399 102.667 52.4532 102.667H59.4532C61.3666 102.667 62.9532 101.08 62.9532 99.1666C62.9532 97.2533 61.3666 95.6666 59.4532 95.6666H59.4066V88.48C65.7999 87.8266 71.6333 85.26 76.3933 81.4333L81.4799 86.52C80.1266 87.8733 80.1732 90.0666 81.5266 91.42C82.8799 92.7733 85.1199 92.7733 86.4733 91.42L91.4199 86.4733C92.7732 85.12 92.7732 82.88 91.4199 81.5266C90.0666 80.1733 87.8266 80.1733 86.4733 81.5266L86.4266 81.5733L81.3399 76.4866C85.1666 71.7266 87.7333 65.8933 88.4333 59.4533H95.6199C95.6199 61.3666 97.2066 62.9533 99.1199 62.9533C101.033 62.9533 102.62 61.3666 102.62 59.4533V52.4533C102.667 50.5866 101.08 49 99.1666 49ZM64.1666 37.3333C66.7333 37.3333 68.8332 39.4333 68.8332 42C68.8332 44.5666 66.7333 46.6666 64.1666 46.6666C61.5999 46.6666 59.4999 44.5666 59.4999 42C59.4999 39.4333 61.5999 37.3333 64.1666 37.3333ZM55.9999 60.6666C53.4333 60.6666 51.3333 58.5666 51.3333 56C51.3333 53.4333 53.4333 51.3333 55.9999 51.3333C58.5666 51.3333 60.6666 53.4333 60.6666 56C60.6666 58.5666 58.5666 60.6666 55.9999 60.6666ZM47.8333 37.3333C50.3999 37.3333 52.4999 39.4333 52.4999 42C52.4999 44.5666 50.3999 46.6666 47.8333 46.6666C45.2666 46.6666 43.1666 44.5666 43.1666 42C43.1666 39.4333 45.2666 37.3333 47.8333 37.3333ZM39.6666 60.6666C37.0999 60.6666 34.9999 58.5666 34.9999 56C34.9999 53.4333 37.0999 51.3333 39.6666 51.3333C42.2333 51.3333 44.3333 53.4333 44.3333 56C44.3333 58.5666 42.2333 60.6666 39.6666 60.6666ZM47.8333 74.6666C45.2666 74.6666 43.1666 72.5666 43.1666 70C43.1666 67.4333 45.2666 65.3333 47.8333 65.3333C50.3999 65.3333 52.4999 67.4333 52.4999 70C52.4999 72.5666 50.3999 74.6666 47.8333 74.6666ZM64.1666 74.6666C61.5999 74.6666 59.4999 72.5666 59.4999 70C59.4999 67.4333 61.5999 65.3333 64.1666 65.3333C66.7333 65.3333 68.8332 67.4333 68.8332 70C68.8332 72.5666 66.7333 74.6666 64.1666 74.6666ZM67.6666 56C67.6666 53.4333 69.7666 51.3333 72.3332 51.3333C74.8999 51.3333 76.9999 53.4333 76.9999 56C76.9999 58.5666 74.8999 60.6666 72.3332 60.6666C69.7666 60.6666 67.6666 58.5666 67.6666 56Z" fill="#4E929D"/>
</g>
<defs>
<clipPath id="clip0_43_518">
<rect width="112" height="112" fill="white"/>
</clipPath>
</defs>
</svg>
