<svg width="36" height="36" viewBox="0 0 36 36" fill="none" xmlns="http://www.w3.org/2000/svg">
<g clip-path="url(#clip0_25_1873)">
<path d="M18 3C9.72 3 3 9.72 3 18C3 26.28 9.72 33 18 33C26.28 33 33 26.28 33 18C33 9.72 26.28 3 18 3ZM19.5 28.5H16.5V25.5H19.5V28.5ZM22.605 16.875L21.255 18.255C20.505 19.02 19.965 19.71 19.695 20.79C19.575 21.27 19.5 21.81 19.5 22.5H16.5V21.75C16.5 21.06 16.62 20.4 16.83 19.785C17.13 18.915 17.625 18.135 18.255 17.505L20.115 15.615C20.805 14.955 21.135 13.965 20.94 12.915C20.745 11.835 19.905 10.92 18.855 10.62C17.19 10.155 15.645 11.1 15.15 12.525C14.97 13.08 14.505 13.5 13.92 13.5H13.47C12.6 13.5 12 12.66 12.24 11.82C12.885 9.615 14.76 7.935 17.085 7.575C19.365 7.215 21.54 8.4 22.89 10.275C24.66 12.72 24.135 15.345 22.605 16.875V16.875Z" fill="#98A270"/>
</g>
<defs>
<clipPath id="clip0_25_1873">
<rect width="36" height="36" fill="white"/>
</clipPath>
</defs>
</svg>
