<svg width="87" height="34" viewBox="0 0 87 34" fill="none" xmlns="http://www.w3.org/2000/svg">
<path d="M71.2384 21.879C69.9586 23.3248 68.4166 24.204 66.5303 24.5336C63.5023 25.0627 60.8458 22.2366 61.727 19.3965C62.6288 16.4898 66.0946 14.3114 69.0275 14.8172C70.4146 15.0564 71.4589 15.8024 72.19 16.9563C72.833 17.9711 72.7982 19.0467 72.3046 20.0977C72.0198 20.704 71.6213 21.2598 71.2384 21.879ZM63.548 18.8335C63.5064 19.1745 63.42 19.5171 63.4315 19.8562C63.468 20.9258 63.9882 21.3068 65.0714 21.099C66.1417 20.8937 67.2616 19.6012 67.2929 18.5352C67.3192 17.6382 66.6455 17.0487 65.7157 17.1826C64.7312 17.3244 64.0925 17.938 63.548 18.8335Z" fill="#8B9466"/>
<path d="M22.6385 31.6816C19.5305 32.5012 16.4935 32.4243 13.42 31.7952C10.8956 31.2784 8.62913 30.2567 6.61595 28.7529C4.04143 26.8298 2.51034 24.1686 1.54585 21.2001C0.535012 18.0888 0.305236 14.9361 1.13203 11.7184C2.34384 7.00212 6.51222 3.93673 11.5728 4.07455C13.4869 4.12668 15.328 4.44058 17.0687 5.21011C20.1833 6.58704 21.9373 8.9872 22.6591 12.2145C23.1367 14.3497 22.843 16.4147 21.9891 18.3446C20.9895 20.6041 19.2104 22.1572 16.6121 22.5393C16.0316 22.6247 15.4041 22.4002 14.7983 22.3183C14.7968 22.2269 14.7954 22.1355 14.794 22.0441C15.1185 21.9329 15.4444 21.8253 15.7673 21.7099C18.0537 20.8925 19.5725 18.6871 19.3487 16.3575C19.151 14.3 17.9737 12.8036 16.0754 12.0101C14.2172 11.2335 12.3657 11.3996 10.6351 12.6043C6.63214 15.3908 6.54449 21.4755 10.1397 24.6438C12.9371 27.109 16.3202 28.222 19.9836 28.671C21.1198 28.8102 22.2745 28.9804 23.409 28.9193C25.058 28.8305 26.7171 28.6402 28.3306 28.3031C29.1363 28.1348 29.9524 27.6604 30.5885 27.126C33.5851 24.609 36.5539 22.0581 39.4705 19.4533C43.3121 16.0223 47.0996 12.5426 51.3845 9.6146C54.537 7.46038 57.8464 5.60896 61.3865 4.15531C64.8203 2.74531 68.3849 1.89301 72.116 1.58615C75.2525 1.32819 78.2769 1.61973 81.2304 2.61179C82.068 2.89315 82.8541 3.32322 83.6534 3.7056C83.8416 3.7956 83.9877 3.96872 84.1531 4.10361C84.1372 4.17328 84.1213 4.24296 84.1055 4.31264C83.8503 4.32666 83.5947 4.35786 83.34 4.3521C79.7512 4.27092 76.4624 5.24907 73.5644 7.27579C70.4788 9.43374 67.529 11.7756 64.4708 13.972C61.3905 16.1844 58.3394 18.4558 55.1072 20.4401C52.5279 22.0236 49.7382 23.3047 46.9638 24.5543C44.2111 25.7942 41.3953 26.9206 38.5442 27.926C35.3075 29.0673 32.0025 30.0238 28.7219 31.0444C28.4555 31.1273 28.1483 31.085 27.8601 31.1008C27.8369 31.0325 27.8138 30.9643 27.7907 30.896C27.9878 30.7818 28.1739 30.6416 28.3836 30.557C32.4383 28.9217 36.2169 26.7822 39.8035 24.3475C43.9302 21.546 47.9302 18.5674 52.0231 15.7176C55.3885 13.3742 58.8096 11.107 62.2047 8.80413C62.3953 8.67481 62.5732 8.52753 62.757 8.38862C62.7209 8.33493 62.6848 8.28124 62.6487 8.22755C61.5938 8.74422 60.5292 9.24272 59.4859 9.7807C55.0749 12.0552 51.0434 14.906 46.9479 17.6601C43.6718 19.8632 40.4211 22.1055 37.0857 24.2202C34.8462 25.6402 32.4762 26.8637 30.1702 28.1844C29.6658 28.4732 29.2098 28.8502 28.6889 29.1028C27.144 29.8518 25.5839 30.5719 24.0158 31.2737C23.6031 31.4584 23.14 31.5355 22.6385 31.6816Z" fill="#8B9466"/>
<path d="M81.6838 16.5443C80.186 17.4107 78.6609 18.1436 76.9433 17.762C75.102 17.3529 73.3492 16.665 72.6428 14.7054C72.0213 12.981 72.5339 11.3957 73.5402 9.97396C74.6627 8.38802 76.0977 7.11671 78.0475 6.54678C79.5157 6.11765 81.0094 5.93466 82.4588 6.58647C85.2787 7.85454 86.81 10.7242 84.468 13.829C83.7095 14.8346 82.653 15.6271 81.6838 16.5443ZM74.9776 13.5312C75.4573 13.982 76.0154 14.0161 76.6083 13.8011C77.8871 13.3375 78.7359 12.4798 79.1296 11.1942C79.3474 10.483 79.2455 9.84225 78.6626 9.36325C78.0598 8.86793 77.3335 8.81527 76.6612 9.20005C75.7458 9.72396 74.9896 10.4153 74.66 11.4553C74.4369 12.1594 74.4604 12.8246 74.9776 13.5312Z" fill="#8B9466"/>
<path d="M52.0315 27.3337C51.9552 26.8629 51.8188 26.4414 51.8585 26.0358C52.1289 23.2697 55.481 20.9295 58.2609 21.5376C60.605 22.0504 61.6101 24.2393 60.4981 26.3042C59.6097 27.9539 58.2143 28.9374 56.4243 29.4338C54.8275 29.8767 52.641 28.8368 52.0315 27.3337ZM56.4176 25.1629C56.6489 24.6367 56.7065 24.0391 56.1629 23.768C55.7538 23.5639 55.1156 23.5302 54.6832 23.6898C53.786 24.0208 53.3776 24.8932 53.4893 25.8187C53.5835 26.5987 54.0366 26.9683 54.7308 26.6199C55.3511 26.3087 55.8288 25.7265 56.4176 25.1629Z" fill="#8B9466"/>
</svg>
