<svg width="242" height="134" viewBox="0 0 242 134" fill="none" xmlns="http://www.w3.org/2000/svg">
<path d="M217.026 71.3162C214.089 76.2308 210.077 79.6381 204.761 81.6325C196.228 84.834 186.937 78.0546 187.948 69.2953C188.983 60.3309 197.889 52.083 206.712 51.9494C210.886 51.8862 214.338 53.4877 217.101 56.4496C219.531 59.0543 220.019 62.2078 219.157 65.5408C218.659 67.4638 217.802 69.3018 217.026 71.3162ZM192.946 66.6567C193.012 67.6732 192.948 68.7189 193.167 69.7009C193.86 72.7977 195.585 73.6227 198.628 72.4234C201.634 71.2385 204.189 66.8582 203.696 63.7348C203.281 61.1063 200.994 59.7578 198.358 60.6576C195.567 61.6104 194.042 63.7487 192.946 66.6567Z" fill="#5E663C"/>
<path d="M80.776 126.52C72.1681 130.612 63.2761 132.052 53.9748 131.904C46.3351 131.781 39.1706 130.046 32.4797 126.768C23.9233 122.575 18.0029 115.659 13.5652 107.537C8.91423 99.0248 6.5166 89.9636 7.16221 80.1336C8.10846 65.7258 18.5752 54.5083 33.3978 52.1361C39.004 51.2389 44.5413 51.1444 50.0355 52.4328C59.8664 54.7381 66.2933 60.771 70.1658 69.78C72.7277 75.7403 73.0037 81.9188 71.5733 88.0106C69.8986 95.1429 65.5657 100.644 58.2034 103.182C56.5587 103.748 54.607 103.438 52.7967 103.532C52.7424 103.266 52.6882 103.001 52.6339 102.735C53.5186 102.233 54.4093 101.741 55.2871 101.228C61.5017 97.5925 64.7187 90.3332 62.7897 83.6674C61.0858 77.7799 56.835 74.0647 50.8682 72.7931C45.0274 71.5483 39.7232 73.0473 35.3404 77.5063C25.2028 87.8205 28.2826 105.6 40.4961 112.862C49.999 118.512 60.4677 119.901 71.3892 119.202C74.7763 118.985 78.2344 118.848 81.5071 118.048C86.2638 116.885 90.9942 115.421 95.5114 113.555C97.7669 112.623 99.8849 110.793 101.446 108.887C108.798 99.9095 116.052 90.849 123.123 81.6595C132.437 69.5559 141.567 57.3396 152.448 46.4587C160.454 38.4531 169.083 31.244 178.603 25.0676C187.836 19.0766 197.756 14.6391 208.461 11.6998C217.46 9.22891 226.433 8.42075 235.583 9.69281C238.178 10.0536 240.705 10.876 243.244 11.5521C243.841 11.7113 244.362 12.1357 244.918 12.4381C244.91 12.6498 244.902 12.8616 244.894 13.0733C244.158 13.254 243.43 13.4851 242.685 13.6079C232.182 15.3384 223.134 19.9915 215.8 27.4859C207.992 35.4656 200.679 43.9067 192.971 51.9836C185.208 60.119 177.562 68.4104 169.23 75.9645C162.582 81.9926 155.155 87.2548 147.755 92.4172C140.413 97.5391 132.825 102.365 125.068 106.857C116.261 111.957 107.155 116.556 98.1542 121.329C97.4231 121.716 96.5048 121.761 95.6736 121.965C95.5687 121.779 95.4639 121.593 95.3591 121.406C95.8708 120.965 96.3365 120.455 96.9011 120.094C107.82 113.106 117.659 104.8 126.776 95.739C137.266 85.3135 147.29 74.4412 157.654 63.8931C166.177 55.2198 174.904 46.7378 183.535 38.1661C184.02 37.6847 184.457 37.1581 184.917 36.6525C184.782 36.5159 184.648 36.3792 184.513 36.2426C181.722 38.3263 178.893 40.3626 176.147 42.5021C164.54 51.5479 154.355 62.065 143.93 72.3355C135.591 80.5512 127.347 88.8674 118.786 96.858C113.039 102.223 106.803 107.088 100.807 112.2C99.4953 113.319 98.3732 114.667 96.9938 115.688C92.9023 118.718 88.7507 121.672 84.5658 124.576C83.4645 125.341 82.1573 125.819 80.776 126.52Z" fill="#5E663C"/>
<path d="M244.541 50.0452C240.651 53.391 236.608 56.3625 231.394 56.192C225.804 56.0091 220.319 54.9654 217.187 49.642C214.431 44.9576 215.055 40.057 217.208 35.3625C219.61 30.1257 223.095 25.6344 228.465 22.9049C232.508 20.8496 236.76 19.4977 241.341 20.6026C250.254 22.7522 256.289 30.2753 251.166 40.6066C249.507 43.9528 246.862 46.8412 244.541 50.0452ZM223.347 44.9408C224.992 45.9913 226.637 45.7847 228.247 44.8334C231.719 42.7815 233.723 39.8167 234.165 35.8546C234.41 33.6629 233.762 31.8515 231.801 30.7751C229.773 29.6621 227.627 29.9067 225.879 31.3965C223.499 33.425 221.674 35.8543 221.284 39.0655C221.019 41.2395 221.452 43.1651 223.347 44.9408Z" fill="#5E663C"/>
<path d="M164.046 97.7393C163.566 96.4091 162.937 95.2556 162.83 94.0519C162.102 85.8433 170.588 77.1864 179.022 77.4347C186.134 77.6441 190.263 83.4717 188.154 90.0986C186.47 95.3928 182.942 99.0236 177.998 101.451C173.588 103.617 166.646 101.785 164.046 97.7393ZM175.638 89.0093C176.023 87.3491 175.863 85.5761 174.131 85.084C172.827 84.7137 170.949 84.9653 169.776 85.6672C167.343 87.1236 166.631 89.8896 167.464 92.5255C168.166 94.7467 169.689 95.5755 171.521 94.1798C173.158 92.933 174.231 90.9744 175.638 89.0093Z" fill="#5E663C"/>
</svg>
