<svg width="24" height="14" viewBox="0 0 24 14" fill="none" xmlns="http://www.w3.org/2000/svg">
<path d="M13.54 7.00018C13.5453 8.80192 12.8354 10.5321 11.566 11.8108C10.2967 13.0896 8.57177 13.8122 6.77003 13.8202C4.96829 13.8122 3.24335 13.0896 1.97402 11.8108C0.704678 10.5321 -0.00528713 8.80192 2.96483e-05 7.00018C-0.00528713 5.19843 0.704678 3.46822 1.97402 2.18951C3.24335 0.910794 4.96829 0.188117 6.77003 0.180176C8.57177 0.188117 10.2967 0.910794 11.566 2.18951C12.8354 3.46822 13.5453 5.19843 13.54 7.00018ZM20.96 7.00018C20.96 10.5402 19.45 13.4202 17.58 13.4202C15.71 13.4202 14.19 10.5402 14.19 7.00018C14.19 3.46018 15.71 0.580176 17.58 0.580176C19.45 0.580176 20.96 3.46018 20.96 7.00018ZM24 7.00018C24 10.1702 23.47 12.7502 22.81 12.7502C22.15 12.7502 21.62 10.1702 21.62 7.00018C21.62 3.83018 22.15 1.25018 22.81 1.25018C23.47 1.25018 24 3.83018 24 7.00018Z" fill="#B8C18F"/>
</svg>
