<svg width="91" height="91" viewBox="0 0 91 91" fill="none" xmlns="http://www.w3.org/2000/svg">
<path d="M38.7205 12.103C35.308 12.831 34.9895 13.0585 35.5355 14.5145C35.854 15.3335 36.1725 15.5155 36.9915 15.3335C54.327 10.9655 71.2985 20.7935 75.803 37.765C76.8495 41.7235 76.8495 49.2765 75.803 53.235C72.8455 64.2005 64.2005 72.8455 53.235 75.803C49.2765 76.8495 41.7235 76.8495 37.765 75.803C28.938 73.3915 21.4305 67.34 17.563 59.3775C15.197 54.6 14.378 51.0055 14.4235 45.5C14.4235 39.9945 15.2425 36.4 17.563 31.6225C18.9735 28.7105 22.7045 23.6145 23.569 23.3415C23.751 23.2505 24.7065 24.3425 25.662 25.7075C27.937 28.847 29.302 29.12 29.9845 26.481C32.396 17.3355 32.76 15.379 32.2595 14.742C31.85 14.2415 30.3485 14.105 25.935 14.105C22.7045 14.105 19.7925 14.2415 19.383 14.378C18.2455 14.833 18.5185 16.289 20.2475 18.5185L21.84 20.566L20.8845 21.7945C20.384 22.4315 19.1555 23.9785 18.1545 25.2525C12.649 32.123 10.192 42.861 12.012 51.87C16.835 75.7575 43.771 87.269 64.0185 74.0285C82.264 62.1075 84.903 36.9005 69.5695 21.4305C66.6575 18.5185 61.9255 15.3335 58.331 13.8775C52.4615 11.5115 44.681 10.7835 38.7205 12.103Z" fill="#4E929D"/>
<path d="M43.68 23.0685C39.9945 24.4335 39.5395 29.8025 42.952 31.8955L44.3625 32.76H42.1785C37.6285 32.76 36.855 34.125 36.855 42.315C36.855 48.23 36.855 48.321 38.22 50.2775L39.585 52.2795V60.242V68.25H45.5H51.415V60.242V52.2795L52.78 50.2775C54.145 48.321 54.145 48.23 54.145 42.315C54.145 34.125 53.3715 32.76 48.8215 32.76L46.6375 32.7145L47.866 32.032C49.2765 31.304 50.505 29.2565 50.505 27.664C50.505 26.1625 48.867 23.7055 47.502 23.205C46.2735 22.7045 44.772 22.659 43.68 23.0685Z" fill="#4E929D"/>
</svg>
