<svg width="77" height="112" viewBox="0 0 77 112" fill="none" xmlns="http://www.w3.org/2000/svg">
<g clip-path="url(#clip0_10_5281)">
<path d="M21 55.9998C31.3133 55.9998 39.6666 47.6465 39.6666 37.3332C39.6666 27.0198 31.3133 18.6665 21 18.6665C10.6866 18.6665 2.33329 27.0198 2.33329 37.3332C2.33329 47.6465 10.6866 55.9998 21 55.9998ZM21 65.3332C8.53996 65.3332 -16.3334 71.5865 -16.3334 83.9998V88.6665C-16.3334 91.2332 -14.2334 93.3332 -11.6667 93.3332H53.6666C56.2333 93.3332 58.3333 91.2332 58.3333 88.6665V83.9998C58.3333 71.5865 33.46 65.3332 21 65.3332Z" fill="#4D5628"/>
</g>
<defs>
<clipPath id="clip0_10_5281">
<rect width="112" height="112" fill="white" transform="translate(-35)"/>
</clipPath>
</defs>
</svg>
