<svg width="91" height="91" viewBox="0 0 91 91" fill="none" xmlns="http://www.w3.org/2000/svg">
<path d="M47.7575 16.2343C43.7506 18.4917 40.1951 20.467 39.9129 20.5799C39.3486 20.7492 42.7911 27.1828 43.4684 27.1828C43.6377 27.1828 44.2585 26.6749 44.8228 26.0541C46.008 24.6432 47.0238 24.6432 48.3218 26.0541C49.7327 27.6343 48.7169 30.0046 46.6288 30.0046C45.8387 30.0046 45.2179 30.2304 45.2179 30.569C45.2179 31.5848 48.3218 36.7769 48.8862 36.7769C49.2248 36.7205 50.4664 36.0997 51.708 35.366C54.8119 33.4472 55.9407 33.5036 55.9407 35.5917C55.9407 37.3977 57.3515 38.2442 59.2704 37.6234C61.4149 36.9462 61.3585 33.7858 59.2704 33.1086C57.5773 32.5442 57.9723 31.9234 61.302 30.0046C62.9951 29.0452 64.406 28.0294 64.406 27.7472C64.406 27.5214 63.7852 26.167 62.9951 24.869C61.2456 21.765 61.2456 20.9749 62.8822 20.9749C64.5189 20.9749 65.5347 19.9591 65.5347 18.4353C65.5347 15.9521 62.1486 14.8799 61.0199 17.0244C60.1169 18.7739 59.4961 18.4353 57.5773 15.0492C56.6179 13.3561 55.6585 11.9452 55.4892 12.0016C55.2634 12.0016 51.8208 13.9205 47.7575 16.2343Z" fill="#4E929D"/>
<path d="M17 30.8512V40.1631H20.104H23.2079L22.8693 38.5265C22.5871 37.3413 22.8129 36.6076 23.7158 35.7047C25.1267 34.2938 26.4812 34.1809 28.2307 35.4225C29.2465 36.1562 29.4723 36.7769 29.303 38.2443L29.0772 40.1631H32.4069H35.6802L35.5673 36.7769C35.5109 34.9146 35.6238 33.2215 35.7931 32.9958C36.0188 32.8265 36.8653 32.9958 37.6554 33.4472C39.0099 34.1245 39.2356 34.1245 40.195 32.8829C41.5495 31.1898 41.5495 30.4562 40.1386 29.1581C39.1792 28.3116 38.7842 28.2552 37.5426 28.8195C36.696 29.1581 35.9059 29.3274 35.7366 29.1581C35.5673 28.9888 35.3416 27.4086 35.2851 25.6027C35.2287 23.8532 35.1723 22.2166 35.1158 21.9344C35.1158 21.7086 30.996 21.5393 26.0297 21.5393H17V30.8512Z" fill="#4E929D"/>
<path d="M23.7723 36.7769C23.3772 37.567 23.3208 38.2442 23.7723 38.9779C24.8446 41.0095 24.4495 41.2917 20.6683 41.2917H17V50.6036V59.9155H20.499C23.2079 59.9155 23.8287 59.7462 23.3208 59.2383C21.5713 57.4888 23.3772 54.2719 26.199 54.2719C28.4 54.2719 29.5851 55.7957 29.2465 58.0531L28.9079 59.9719L32.0119 59.8026L35.1723 59.6333L35.2287 56.4729L35.3416 53.3125L33.3099 53.5383C31.5604 53.8204 31.0525 53.5947 30.2624 52.4095C29.1337 50.6036 29.5287 48.967 31.4475 47.669C32.5198 46.9917 33.1406 46.9353 34.2129 47.3868C35.4545 47.9511 35.5109 47.8947 35.3416 46.2016C35.2287 45.1858 35.1158 43.7185 35.1158 42.8155C35.0594 41.2917 35.003 41.2917 31.3911 41.2917C27.6099 41.2917 27.2149 41.0095 28.2871 38.9779C29.1901 37.3412 28.0614 35.6482 26.0297 35.6482C24.9574 35.6482 24.1673 36.0432 23.7723 36.7769Z" fill="#4E929D"/>
<path d="M36.188 44.8472C36.188 46.8225 36.0187 48.572 35.8494 48.7413C35.6801 48.9106 34.8336 48.7977 33.9306 48.4591C31.8989 47.669 30.4316 48.7413 30.6573 50.7729C30.8831 52.6918 32.4633 53.6512 33.9306 52.6918C35.9058 51.4502 36.188 51.9017 36.188 55.965V59.9155H40.1949C43.8068 59.9155 44.1454 60.0284 43.8068 60.8749C42.5652 63.9789 43.1296 65.5591 45.4999 65.5591C47.8702 65.5591 48.4345 63.9789 47.193 60.8749C46.8543 60.0284 47.193 59.9155 50.8048 59.9155H54.8118V55.9086C54.8118 52.2967 54.9246 51.9581 55.8276 52.2967C57.9722 53.1997 58.8187 53.2561 59.6088 52.5789C60.6246 51.7324 60.7375 49.7007 59.7781 48.7413C58.9316 47.8947 56.7306 47.8383 56.2227 48.6284C55.4326 49.9264 54.8118 48.3462 54.8118 44.9036V41.2918H50.8613C48.7167 41.2918 46.9108 41.4046 46.9108 41.5739C46.9108 41.7432 47.2494 42.364 47.588 42.9848C48.6039 44.565 47.5316 46.0888 45.4999 46.0888C43.4682 46.0888 42.3959 44.565 43.4118 42.9848C43.7504 42.364 44.089 41.7432 44.089 41.5739C44.089 41.4046 42.3395 41.2918 40.1385 41.2918H36.188V44.8472Z" fill="#4E929D"/>
<path d="M24.1109 56.0779C23.4901 56.9244 23.4337 57.5452 23.7723 58.2789C24.8446 60.1977 24.3931 60.4799 20.6683 60.4799H17V69.7918V79.1036H26.199H35.3416V75.9997V72.8957L33.5921 73.2343C32.1812 73.4601 31.5604 73.2908 30.601 72.2749C29.1901 70.7512 29.1337 69.6225 30.3188 67.8729C31.1089 66.8007 31.6168 66.6314 33.3099 66.8571L35.3416 67.0828L35.2851 63.9225L35.1723 60.7621L31.3911 60.5927C27.3842 60.4234 27.3842 60.367 28.5129 57.6017C29.0208 56.4729 27.497 54.8363 26.0297 54.8363C25.4653 54.8363 24.5624 55.4007 24.1109 56.0779Z" fill="#4E929D"/>
<path d="M36.1879 64.4304C36.1879 68.4937 35.9057 68.9452 33.9305 67.7036C31.7295 66.3492 29.4721 69.5096 31.1087 71.5413C31.8988 72.4442 34.2691 72.6135 34.777 71.767C35.5671 70.469 36.1879 72.0492 36.1879 75.4918V79.1036H45.4998H54.8117V75.7175V72.3314L53.4008 73.0086C51.4255 73.9116 49.1681 72.3314 49.1681 70.0739C49.1681 67.7601 50.6354 66.5185 52.9493 66.8571L54.8117 67.1957V63.8096V60.4799H51.4255H48.0394L48.6037 61.9472C50.0711 65.672 44.8225 68.0987 42.6216 64.7125C42.0008 63.7531 41.9443 63.0759 42.3394 61.9472L42.9602 60.4799H39.574H36.1879V64.4304Z" fill="#4E929D"/>
<path d="M55.5455 61.3828C55.3762 61.8343 55.3762 63.3017 55.5455 64.5997C55.997 67.7036 55.3762 68.7195 53.7396 67.8165C51.2564 66.5185 48.9426 68.7195 50.297 71.2026C50.9742 72.4442 53.0624 72.7264 54.0782 71.7106C55.0376 70.7512 55.6584 72.67 55.602 76.169L55.5455 79.1036H64.801H74V69.7918V60.4799H70.3881C66.9455 60.4799 65.3653 61.1007 66.6634 61.8908C67.4535 62.3987 67.397 64.5997 66.5505 65.4462C64.8574 67.1393 61.5841 64.8254 62.7129 62.6809C63.7851 60.7621 63.3336 60.4799 59.6089 60.4799C56.7871 60.4799 55.8277 60.7056 55.5455 61.3828Z" fill="#4E929D"/>
</svg>
