<svg width="77" height="112" viewBox="0 0 77 112" fill="none" xmlns="http://www.w3.org/2000/svg">
<g clip-path="url(#clip0_10_5271)">
<path d="M37.2867 44.9402C36.54 33.6469 32.48 22.5869 24.9667 13.3936C23.0533 11.0602 19.5533 11.0602 17.64 13.3936C9.94 22.6336 5.64667 33.6936 4.71334 44.9402C10.6867 48.1136 16.1933 52.2202 21 57.2136C25.8067 52.2669 31.3133 48.1602 37.2867 44.9402V44.9402ZM6.95333 57.3069C6.3 56.8402 5.55333 56.4202 4.85333 55.9536C5.55333 56.4669 6.3 56.8402 6.95333 57.3069ZM36.9133 56.1402C36.3067 56.5602 35.6533 56.8869 35.0467 57.3536C35.6533 56.8869 36.3067 56.5602 36.9133 56.1402ZM21 72.1002C11.9 58.2402 -2.98667 48.6269 -20.2067 46.9469C-23.1933 46.6669 -25.6667 49.1402 -25.3867 52.1269C-23.2867 74.5269 -8.35333 93.1002 11.8533 100.334C14.7933 101.407 17.8733 102.2 21.0467 102.714C24.22 102.154 27.2533 101.36 30.24 100.334C50.4467 93.1002 65.38 74.5736 67.48 52.1269C67.76 49.1402 65.24 46.6669 62.3 46.9469C44.9867 48.6269 30.1 58.2402 21 72.1002V72.1002Z" fill="#4D5628"/>
</g>
<defs>
<clipPath id="clip0_10_5271">
<rect width="112" height="112" fill="white" transform="translate(-35)"/>
</clipPath>
</defs>
</svg>
