<svg width="112" height="112" viewBox="0 0 112 112" fill="none" xmlns="http://www.w3.org/2000/svg">
<g clip-path="url(#clip0_43_519)">
<path d="M72.2865 44.94C71.5399 33.6466 67.4799 22.5866 59.9665 13.3933C58.0532 11.06 54.5532 11.06 52.6399 13.3933C44.9399 22.6333 40.6465 33.6933 39.7132 44.94C45.6865 48.1133 51.1932 52.22 55.9999 57.2133C60.8065 52.2666 66.3132 48.16 72.2865 44.94ZM41.9532 57.3066C41.2999 56.84 40.5532 56.42 39.8532 55.9533C40.5532 56.4666 41.2999 56.84 41.9532 57.3066ZM71.9132 56.14C71.3065 56.56 70.6532 56.8866 70.0465 57.3533C70.6532 56.8866 71.3065 56.56 71.9132 56.14ZM55.9999 72.1C46.8999 58.24 32.0132 48.6266 14.7932 46.9466C11.8065 46.6666 9.33321 49.14 9.61321 52.1266C11.7132 74.5266 26.6465 93.1 46.8532 100.333C49.7932 101.407 52.8732 102.2 56.0465 102.713C59.2199 102.153 62.2532 101.36 65.2399 100.333C85.4465 93.1 100.38 74.5733 102.48 52.1266C102.76 49.14 100.24 46.6666 97.2999 46.9466C79.9865 48.6266 65.0999 58.24 55.9999 72.1Z" fill="#4E929D"/>
</g>
<defs>
<clipPath id="clip0_43_519">
<rect width="112" height="112" fill="white"/>
</clipPath>
</defs>
</svg>
